<?xml version="1.0" encoding="UTF-8" standalone="no"?>
<!-- Created with Inkscape (http://www.inkscape.org/) -->

<svg
   xmlns:dc="http://purl.org/dc/elements/1.1/"
   xmlns:cc="http://creativecommons.org/ns#"
   xmlns:rdf="http://www.w3.org/1999/02/22-rdf-syntax-ns#"
   xmlns:svg="http://www.w3.org/2000/svg"
   xmlns="http://www.w3.org/2000/svg"
   xmlns:sodipodi="http://sodipodi.sourceforge.net/DTD/sodipodi-0.dtd"
   xmlns:inkscape="http://www.inkscape.org/namespaces/inkscape"
   width="47.479778mm"
   height="31.479778mm"
   viewBox="0 0 168.23543 111.54252"
   id="svg2"
   version="1.1"
   inkscape:version="0.91 r13725"
   sodipodi:docname="krafta-floppy.svg">
  <defs
     id="defs4">
    <inkscape:path-effect
       back_thickness="0.25"
       front_thickness="1"
       stroke_width_bottom="1"
       stroke_width_top="1"
       fat_output="false"
       bottom_smth_variation="0;1"
       top_smth_variation="0;1"
       scale_tb="1"
       scale_tf="1"
       scale_bb="1"
       scale_bf="1"
       top_tgt_variation="0;1"
       bottom_tgt_variation="0;1"
       top_edge_variation="0;1"
       bottom_edge_variation="0;1"
       bender="227.58696,449.43466 , -0.03403807,-9.795966"
       do_bend="false"
       growth="0"
       dist_rdm="0;1"
       direction="212.89301,458.31228 , 4.0968602,3.6267056e-007"
       is_visible="true"
       id="path-effect4238"
       effect="rough_hatches" />
    <inkscape:path-effect
       effect="rough_hatches"
       id="path-effect4226"
       is_visible="true"
       direction="212.89301,458.31228 , 4.0968602,3.6267056e-007"
       dist_rdm="0;1"
       growth="0"
       do_bend="false"
       bender="227.58696,449.43466 , -0.03403807,-9.795966"
       bottom_edge_variation="0;1"
       top_edge_variation="0;1"
       bottom_tgt_variation="0;1"
       top_tgt_variation="0;1"
       scale_bf="1"
       scale_bb="1"
       scale_tf="1"
       scale_tb="1"
       top_smth_variation="0;1"
       bottom_smth_variation="0;1"
       fat_output="false"
       stroke_width_top="1"
       stroke_width_bottom="1"
       front_thickness="1"
       back_thickness="0.25" />
  </defs>
  <sodipodi:namedview
     id="base"
     pagecolor="#ffffff"
     bordercolor="#666666"
     borderopacity="1.0"
     inkscape:pageopacity="0.0"
     inkscape:pageshadow="2"
     inkscape:zoom="3.959798"
     inkscape:cx="69.90304"
     inkscape:cy="62.633086"
     inkscape:document-units="mm"
     inkscape:current-layer="g4193"
     showgrid="false"
     showguides="true"
     inkscape:guide-bbox="true"
     inkscape:snap-bbox="true"
     inkscape:bbox-nodes="true"
     inkscape:snap-bbox-edge-midpoints="true"
     inkscape:snap-bbox-midpoints="true"
     inkscape:bbox-paths="true"
     fit-margin-top="0"
     fit-margin-left="0"
     fit-margin-right="0"
     fit-margin-bottom="0"
     inkscape:window-width="1600"
     inkscape:window-height="1153"
     inkscape:window-x="1916"
     inkscape:window-y="-4"
     inkscape:window-maximized="1" />
  <metadata
     id="metadata7">
    <rdf:RDF>
      <cc:Work
         rdf:about="">
        <dc:format>image/svg+xml</dc:format>
        <dc:type
           rdf:resource="http://purl.org/dc/dcmitype/StillImage" />
        <dc:title></dc:title>
      </cc:Work>
    </rdf:RDF>
  </metadata>
  <g
     inkscape:label="Ebene 1"
     inkscape:groupmode="layer"
     id="layer1"
     transform="translate(-79.802054,-234.13865)">
    <g
       id="g4193"
       transform="matrix(0.52499745,0,0,0.52499745,20.295471,224.48541)">
      <g
         id="g4155"
         inkscape:label="krafta"
         transform="matrix(1.25,0,0,-1.25,-59.477846,664.22843)"
         style="fill:none;stroke:#000000;stroke-opacity:1;stroke-linejoin:round;stroke-linecap:round" />
      <g
         id="g4338"
         inkscape:label="krafta"
         transform="matrix(1.25,0,0,-1.25,-59.477846,664.22843)"
         style="fill:#000000;stroke:none;stroke-opacity:1;stroke-width:1.6198054;stroke-miterlimit:4;stroke-dasharray:none;fill-opacity:1;stroke-linejoin:round;stroke-linecap:round">
        <g
           id="g4340"
           style="fill:#000000;stroke:none;stroke-opacity:1;stroke-width:1.6198054;stroke-miterlimit:4;stroke-dasharray:none;fill-opacity:1;stroke-linejoin:round;stroke-linecap:round">
          <g
             transform="matrix(0.24823403,0,0,0.24823403,159.36672,378.70197)"
             id="g4342"
             style="fill:#000000;stroke:none;stroke-opacity:1;stroke-width:6.52531564;stroke-miterlimit:4;stroke-dasharray:none;fill-opacity:1;stroke-linejoin:round;stroke-linecap:round">
            <g
               transform="scale(1,-1)"
               style="font-style:normal;font-weight:normal;font-size:61.38630295px;line-height:125%;font-family:sans-serif;letter-spacing:0px;word-spacing:0px;fill:none;fill-opacity:1;stroke:#0000ff;stroke-width:1px;stroke-linecap:round;stroke-linejoin:round;stroke-opacity:1"
               id="text4460" />
          </g>
        </g>
      </g>
      <path
         id="path4585"
         style="fill:none;fill-rule:evenodd;stroke:#0000ff;stroke-width:2.02475675;stroke-linecap:round;stroke-linejoin:round;stroke-miterlimit:4;stroke-dasharray:none;stroke-opacity:1"
         d="m 216.40437,65.288422 c 0.0782,0.220694 -0.2589,0.214322 -0.3668,0.130007 -0.29243,-0.228487 -0.14534,-0.672434 0.10679,-0.863623 0.451,-0.341992 1.08577,-0.104688 1.36044,0.343593 0.40309,0.65787 0.0655,1.505685 -0.5804,1.857254 -0.86091,0.468587 -1.92806,0.02718 -2.35407,-0.817193 -0.53608,-1.062555 0.0107,-2.351654 1.054,-2.850885 1.26353,-0.604636 2.77592,0.04838 3.3477,1.290794 0.67381,1.464147 -0.0858,3.200628 -1.5276,3.844515 -1.66454,0.743393 -3.62561,-0.123217 -4.34133,-1.764394 -0.81324,-1.86481 0.16051,-4.050804 2.0012,-4.838147 2.06497,-0.883279 4.47614,0.197737 5.33496,2.237995 0.95346,2.265074 -0.23493,4.901582 -2.4748,5.831777 -2.46512,1.023741 -5.32711,-0.272083 -6.32859,-2.711595 -1.0941,-2.665131 0.30922,-5.752705 2.9484,-6.825408 2.86511,-1.164534 6.17835,0.346329 7.32222,3.185196 1.23501,3.065068 -0.38343,6.604044 -3.422,7.819039 -3.265,1.305536 -7.02977,-0.42051 -8.31585,-3.658796 -1.37609,-3.464929 0.45758,-7.455529 3.8956,-8.81267 3.66484,-1.44668 7.88131,0.494646 9.30948,4.132397 1.51729,3.864737 -0.5317,8.307113 -4.3692,9.8063 -4.06462,1.587921 -8.73293,-0.568751 -10.30311,-4.605997 -1.65857,-4.264511 0.60579,-9.158772 4.8428,-10.799931 4.46438,-1.729234 9.58462,0.642832 11.29674,5.079597 1.79991,4.664257 -0.67986,10.010487 -5.31639,11.793562 -4.86413,1.870601 -10.43636,-0.716897 -12.29038,-5.553198 -0.70491,-1.838782 -0.83394,-3.876769 -0.37535,-5.791294 M 162.1707,110.47309 c 1.56334,-9.7408 9.18023,-24.59044 18.63981,-31.988319 9.38003,-7.335667 13.46877,-9.259778 25.61471,-12.266197 10.90073,-2.698199 19.47008,-0.200979 24.77291,1.322824 10.46234,3.006421 15.8816,6.614296 21.40571,11.664914 8.41798,7.696438 11.30415,12.626968 14.31057,19.842379 3.00642,7.215409 3.48745,11.183889 3.48745,11.183889 m -87.84763,-0.36078 c 1.80385,-3.6077 10.40222,-24.291876 32.76999,-23.690591 22.36777,0.601284 27.65908,12.626968 30.30473,17.557501 2.64565,4.93053 2.88616,5.53181 2.88616,5.53181 l -64.27728,-0.18038 2.10449,-2.94629 c 0,0 6.13267,-18.311214 28.62113,-17.978404 28.44074,0.4209 31.14652,19.661994 31.14652,19.661994 l -58.98597,0 c 0,0 5.47191,-17.899339 27.35842,-17.798012 25.97548,0.120257 29.46293,16.114412 29.46293,16.114412 l -54.77699,0.24052 c 0,0 7.28103,-15.014884 25.55458,-14.55108 23.6906,0.601294 27.2983,12.86748 27.2983,12.86748 l -50.32749,0.12026 c 0,0 7.03503,-11.06363 22.90893,-11.424401 15.8739,-0.360771 26.09574,9.500291 25.25394,9.500291 -0.8418,0 -45.39696,0.36077 -45.39696,0.36077 0,0 6.43374,-8.658493 20.50379,-8.177466 14.07005,0.481029 21.64624,6.854636 21.64624,6.854636 l -39.02335,0.12026 c 0,0 6.67425,-6.133098 17.61762,-5.411557 10.94338,0.721543 17.37712,3.908347 17.37712,3.908347 l -31.02626,0.48103 c 0,0 5.83245,-3.427321 12.56683,-3.307065 6.73439,0.120267 11.84531,1.743724 11.84531,1.743724 l -18.21892,0.300634 c 0,0 2.5254,-1.202567 6.61413,-1.08231 4.08873,0.120249 -0.24052,0.721541 -0.24052,0.721541 m 13.529,-21.592385 c 0,0 9.51467,2.311197 16.40861,8.092505 6.99649,5.867295 11.19946,10.060015 15.62304,24.191336 m -87.66212,-0.33975 c 0,0 2.3055,-9.03511 8.08246,-15.932699 5.86288,-7.000177 9.93201,-12.288038 24.06054,-16.720517 m 37.01626,43.466726 c 0,-0.4209 -1.02218,-3.12668 -1.02218,-3.12668 l -11.06363,-0.24052 0.0601,19.42148 2.04437,0 0.24052,-18.82019 -1.14244,0.24051 -0.18039,18.15878 1.56334,-8.71862 7.3958,0.0601 0.30064,-1.80386 -0.0601,3.48745 m 8.11733,-9.13948 0.36077,-2.88617 16.7157,-0.12026 0.36077,2.88617 -2.46527,-3.72797 -5.35142,0.8418 0.48103,19.84238 -2.28489,-0.36077 -0.36077,-19.84238 1.32283,0 0.36077,20.08289 m 29.34294,0.11344 -7.15529,-19.72212 -2.10449,-0.0601 -1.2627,3.18681 3.06655,0.30064 3.30707,10.5826 -10.76299,0.42089 -2.1045,5.41156 1.50321,0.0601 0.73623,-6.70391 1.24801,1.71325 9.44016,0.4209 1.02219,4.62989 1.56334,0.0601 -6.01285,-18.8202 -1.32282,0.12027 -0.0601,1.38295 m -56.88178,16.6023 -7.15529,-19.72212 -2.10449,-0.0601 -1.2627,3.18681 3.06655,0.30064 3.30707,10.5826 -10.76299,0.42089 -2.1045,5.41156 1.50321,0.0601 0.73623,-6.70391 1.24801,1.71325 9.44016,0.4209 1.02219,4.62989 1.56334,0.0601 -6.01285,-18.8202 -1.32282,0.12027 -0.0601,1.38295 m -30.66552,17.55752 0.0601,-20.08289 1.62347,0.12025 -0.18039,19.36135 1.2627,0.0601 -0.0601,-8.17746 5.35143,-0.30064 4.99066,-5.77233 -1.20257,-3.12668 -2.64565,-1.80385 1.86398,3.24693 0.24051,2.28488 -2.7659,6.79452 3.06654,6.97489 1.62347,-0.24051 -5.17104,-7.8167 m -34.87484,-12.05938 0.16151,20.05958 1.65943,-0.0601 -0.0292,-19.27791 0.99978,9.53418 5.10207,-0.17008 5.27213,-9.01365 1.53062,0 -6.97282,8.33338 4.42179,10.54426 3.40137,0.34014 -7.14289,-10.54427 4.76193,10.03407 m 24.70344,1.49295 c -0.0247,-6.2e-4 -0.0381,-0.006 -0.0624,-0.009 -0.0474,-0.0665 -0.086,-0.11591 -0.15029,-0.21757 -0.21007,-0.33191 -0.484,-0.81895 -0.77028,-1.37328 -0.57256,-1.10867 -1.20372,-2.50077 -1.60237,-3.59261 -0.45649,-1.24954 -0.87621,-2.16422 -1.43995,-2.86172 -0.56375,-0.6975 -1.4718,-1.17366 -2.33992,-1.07269 -0.20876,0.0239 -0.47241,0.0207 -0.85937,0.21939 -0.38754,0.19895 -0.70844,0.66089 -0.81937,1.02057 -0.22181,0.71922 -0.18791,1.38184 -0.2315,2.79445 l 0,6.2e-4 -0.0897,2.84899 a 1.1339875,1.1339875 0 0 0 1.02481,1.16421 l 0.87573,0.0842 c -0.008,0.22298 -0.0164,0.44241 -0.0164,0.69028 l 0,0.10726 -7.66156,0 0,-0.41756 c 0,-0.19806 0.0178,-0.27991 0.0315,-0.41756 l 0.69634,0 a 1.1339875,1.1339875 0 0 0 1.13389,-1.13391 l 0,-17.68668 a 1.1339875,1.1339875 0 0 0 -1.1339,-1.1339 l -0.69755,0 c -0.013,-0.13033 -0.0303,-0.20227 -0.0303,-0.38726 l 0,-0.46301 2.26659,-0.15454 c 3.35192,-0.22791 8.68994,0.0378 10.44025,0.43998 3.01923,0.69477 4.98206,3.95725 4.14774,6.70523 l 0,6.2e-4 c -0.17968,0.58886 -1.39937,2.22647 -2.53809,3.05141 l -1.19754,0.86785 a 1.1339875,1.1339875 0 0 0 -0.10727,1.74782 l 0.79513,0.74058 c -0.0228,-0.0212 0.41453,0.52251 0.81148,1.16602 0.39696,0.64352 0.85033,1.45196 1.24784,2.24235 0.70336,1.39752 1.08275,2.1691 1.57692,2.77506 0.49416,0.60596 1.25411,0.9162 1.83266,1.02481 0.0803,0.0151 0.0765,0.0168 0.13818,0.0297 0.016,0.14476 0.0388,0.30412 0.0388,0.59998 l 0,0.40483 -1.11693,0.002 -6.2e-4,0 c -1.27632,0.001 -2.72279,0.0557 -3.47988,0.15394 a 1.1339875,1.1339875 0 0 0 -0.002,0 c -0.23528,0.0309 -0.50597,0.044 -0.71089,0.0394 z m -25.33854,-0.0751 c -0.32218,-0.002 -0.57963,-0.0115 -0.7721,-0.0249 -0.008,-0.0121 -0.0143,-0.0139 -0.0218,-0.0266 -0.12902,-0.2185 -0.308,-0.56059 -0.51392,-0.99149 -0.41185,-0.8618 -0.93801,-2.08458 -1.51753,-3.54473 -0.72805,-1.83345 -1.39517,-3.22726 -2.06599,-4.23804 -0.67082,-1.01076 -1.36942,-1.84599 -2.55143,-1.84599 -0.19608,0 -0.49031,-0.0509 -0.94239,0.17272 -0.45209,0.22358 -0.73634,0.73238 -0.83149,1.09572 -0.1903,0.72668 -0.17156,1.48995 -0.21999,3.12111 a 1.1339875,1.1339875 0 0 0 0,6.2e-4 c -0.0271,0.9202 -0.0341,1.7828 -0.023,2.4484 0.006,0.3328 0.015,0.61408 0.0309,0.84482 0.008,0.11537 0.0171,0.21601 0.0327,0.32362 0.0156,0.10762 -0.0751,0.12751 0.18606,0.55029 a 1.1339875,1.1339875 0 0 0 0.003,0.005 c 0.38162,0.61088 0.6313,0.56436 0.89451,0.66483 0.20925,0.0799 0.43765,0.12646 0.66968,0.16908 0.002,0.0674 0.0341,0.1726 0.0654,0.72301 a 1.1339875,1.1339875 0 0 0 0,0.001 l 0.0248,0.42968 -7.90155,0 0.0248,-0.42968 a 1.1339875,1.1339875 0 0 0 0,-6.2e-4 c 0.0316,-0.55123 0.0531,-0.61186 0.0509,-0.67695 l 0.75695,-0.0879 a 1.1339875,1.1339875 0 0 0 1.0036,-1.13754 l -0.0824,-8.5888 -0.0824,-8.59001 a 1.1339875,1.1339875 0 0 0 -1.00421,-1.11572 l -0.67028,-0.077 c -0.0142,-0.14642 -0.0321,-0.27807 -0.0321,-0.52362 l 0,-0.39695 7.97185,0 0,0.39695 c 0,0.24555 -0.018,0.3772 -0.0321,0.52362 l -0.67028,0.077 a 1.1339875,1.1339875 0 0 0 -1.0036,1.09814 l -0.0873,3.49079 -0.0885,3.49079 a 1.1339875,1.1339875 0 0 0 1.13329,1.16239 l 0.78664,0 c 0.71466,0 1.3483,-0.4054 1.94357,-0.98239 0.59527,-0.57699 1.29861,-1.42139 2.35629,-2.75264 a 1.1339875,1.1339875 0 0 0 6.2e-4,-6.2e-4 c 0.73471,-0.92613 1.38317,-1.79539 1.85084,-2.47264 0.23384,-0.33863 0.42081,-0.62549 0.56362,-0.87512 0.0714,-0.12482 0.13184,-0.23429 0.19151,-0.38302 0.0298,-0.0744 0.062,-0.15542 0.0879,-0.30181 0.0257,-0.14588 0.10976,-0.40678 -0.15514,-0.83573 -0.39116,-0.63572 -0.71291,-0.60141 -1.00057,-0.68179 -0.14261,-0.0398 -0.29736,-0.0392 -0.44484,-0.0588 -0.002,-0.11595 -0.0128,-0.17569 -0.003,-0.32726 l 0.0279,-0.43271 6.95491,-0.1303 0,0.40423 c 0,0.3847 -0.003,0.36811 -0.0158,0.50665 -0.14369,0.0492 -0.25948,0.1132 -0.37696,0.17575 -0.22948,0.12219 -0.44528,0.26861 -0.67028,0.43998 -0.44979,0.34261 -0.93024,0.78598 -1.40237,1.29511 l -6.2e-4,6.2e-4 c -0.83202,0.89629 -2.28851,2.46661 -3.23989,3.48958 a 1.1339875,1.1339875 0 0 0 -6.3e-4,6.2e-4 c -0.49448,0.53222 -0.94222,1.052 -1.28298,1.48359 -0.17038,0.2158 -0.31273,0.40664 -0.4315,0.58725 -0.0594,0.0903 -0.11312,0.17638 -0.16788,0.28484 -0.0546,0.10813 -0.14632,0.18324 -0.15757,0.58483 -0.0205,0.68622 0.20506,0.83069 0.37635,1.08118 0.17175,0.25113 0.37667,0.48543 0.61998,0.70603 a 1.1339875,1.1339875 0 0 0 6.2e-4,6.3e-4 c 0.19126,0.17325 0.86099,1.05494 1.48783,2.11508 0.62685,1.06014 1.28984,2.34472 1.80176,3.53079 a 1.1339875,1.1339875 0 0 0 0,6.2e-4 c 0.57534,1.33273 0.95505,2.1729 1.55995,2.83566 0.60475,0.66261 1.4826,0.94171 2.27325,1.00784 0.0762,0.006 0.078,0.0101 0.13818,0.0164 0.0151,0.0852 0.0278,0.11478 0.0376,0.26362 0.0138,0.21044 0.004,0.4148 -0.007,0.60665 -0.39233,0.056 -0.93799,0.11317 -1.5557,0.16181 -1.27586,0.10047 -2.8259,0.1674 -3.88108,0.16242 z m 68.81404,-0.0236 c -1.11472,0.005 -2.60734,-0.004 -4.20107,-0.0279 a 1.1339875,1.1339875 0 0 0 -6.2e-4,0 l -4.6956,-0.0673 0,-0.0351 c 0.003,-0.658 0.10127,-0.89675 0.0721,-0.85148 -0.0292,0.0453 -0.0703,0.0123 0.3812,-0.0976 a 1.1339875,1.1339875 0 0 0 0.002,-6.2e-4 l 0.85815,-0.2109 a 1.1339875,1.1339875 0 0 0 0.863,-1.11208 l -0.16484,-17.20669 a 1.1339875,1.1339875 0 0 0 -1.02542,-1.11754 l -0.95572,-0.0921 c -0.016,-0.1455 -0.0358,-0.2632 -0.0358,-0.51028 l 0,-0.39211 15.3413,0.14424 0.15696,2.1975 c 0.0664,0.92973 0.11254,1.61851 0.11212,2.07023 -3.1e-4,0.33765 -0.0225,0.37168 -0.0261,0.40907 -0.18602,0.0248 -0.53902,0.0402 -1.08966,0.0418 l -0.59211,0.002 -0.0739,-0.55755 c -0.0678,-0.51002 -0.14793,-0.96118 -0.32666,-1.40662 -0.17873,-0.44544 -0.49963,-0.8932 -0.93269,-1.18178 -0.86613,-0.57716 -1.80387,-0.57453 -3.13263,-0.57453 l -1.88236,0 a 1.1339875,1.1339875 0 0 0 -1.13394,1.13387 l 0,7.75732 a 1.1339875,1.1339875 0 0 0 1.1339,1.1339 l 1.6848,0 c 1.00904,0 1.8524,-0.11031 2.58476,-0.54362 0.56707,-0.33551 0.97313,-0.94799 1.13087,-1.5951 0.17764,-0.0142 0.28224,-0.0333 0.83815,-0.0333 0.31569,0 0.28214,0.007 0.48423,0.0188 -0.015,0.19729 -0.0313,0.38321 -0.043,0.62544 -0.0353,0.72715 -0.0564,1.64271 -0.0564,2.59143 l 0,2.25386 -0.55816,0 c -0.35851,0 -0.58315,-0.0249 -0.75755,-0.0418 -0.009,-0.045 -0.009,-0.0332 -0.0188,-0.0873 -0.14186,-0.75516 -0.65617,-1.60208 -1.43935,-1.95993 -0.78335,-0.35794 -1.62259,-0.39332 -2.80233,-0.39332 l -1.04723,0 a 1.1339875,1.1339875 0 0 0 -1.13389,1.13391 l 0,6.14525 a 1.1339875,1.1339875 0 0 0 1.0036,1.12663 l 2.71991,0.31514 0,0.47817 c 0,0.23704 -0.0246,0.34526 -0.0424,0.50301 -0.31755,0.007 -0.70362,0.0131 -1.19935,0.0151 z m -34.3043,-0.0982 0.0163,-0.24848 c 0.0352,-0.54139 0.0812,-0.64969 0.0558,-0.63452 0.0459,-0.0148 0.0389,-0.0155 0.11999,-0.0364 0.2822,-0.0725 0.81271,-0.29286 1.16421,-0.68301 0.35149,-0.39015 0.59297,-0.85172 0.92178,-1.57995 0.65764,-1.45644 1.62578,-4.04817 3.50413,-9.08999 l 3.59442,-9.64877 1.80176,0.057 1.82842,0.0588 3.20292,9.49362 c 1.71522,5.08311 2.57045,7.62607 3.1702,9.04817 0.29987,0.71105 0.52859,1.16982 0.89512,1.56056 0.36654,0.39073 0.87014,0.57449 1.12663,0.65149 0.11115,0.0333 0.11934,0.0397 0.17939,0.0612 -0.0345,-0.0298 0.002,0.0646 0.002,0.63695 l 0,0.35332 -8.28214,0 0,-0.39332 c 0,-0.29779 0.0208,-0.47638 0.0358,-0.6218 0.0183,-0.004 0.01,-0.003 0.0297,-0.008 0.4648,-0.10202 0.96861,-0.11252 1.4351,-0.74906 0.23325,-0.31828 0.29664,-0.71634 0.28787,-0.98421 -0.009,-0.26787 -0.0568,-0.4656 -0.10788,-0.67513 a 1.1339875,1.1339875 0 0 0 -6.2e-4,-0.002 c -0.0983,-0.40045 -0.19715,-0.79129 -0.45938,-1.20057 -0.26222,-0.40928 -0.73421,-0.76101 -1.21147,-0.91572 -0.9544,-0.3094 -1.93985,-0.21772 -3.73684,-0.12242 l -6.3e-4,0 c -1.52185,0.0802 -2.34292,0.11698 -3.02232,0.27877 -0.33976,0.0809 -0.69941,0.21419 -1.00239,0.50423 -0.30297,0.29003 -0.43628,0.6571 -0.49756,0.88542 a 1.1339875,1.1339875 0 0 0 0,6.2e-4 c -0.20252,0.75556 -0.42346,1.32612 -0.0776,2.13266 0.17294,0.40327 0.58207,0.75142 0.94179,0.88664 0.27232,0.10236 0.50356,0.10294 0.73997,0.11272 0.0152,0.14326 0.0345,0.23829 0.0345,0.45332 l 0,0.41756 -6.68887,0 z m 50.53587,0 0,-0.2006 c 0,-0.70466 0.13402,-0.94125 0.10303,-0.90482 -0.031,0.0364 -0.0171,-0.04 0.53149,-0.04 l 1.02421,0 a 1.1339875,1.1339875 0 0 0 1.1339,-1.1339 l 0,-17.10003 a 1.1339875,1.1339875 0 0 0 -1.20663,-1.13147 l -2.94778,0.18908 a 1.1339875,1.1339875 0 0 0 -1.03026,0.86907 l -0.47998,2.01508 0,6.2e-4 c -0.13037,0.54713 -0.23961,0.94109 -0.32363,1.15269 -0.0841,0.2117 -0.10936,0.19179 -0.0539,0.15393 0.0554,-0.0379 0.0718,-0.009 -0.14969,-0.009 -0.22151,-3.1e-4 -0.62168,-0.0449 -1.17148,-0.12727 l -0.39271,-0.0588 0.001,-0.63271 c 0.001,-0.80988 0.0904,-2.49177 0.19515,-3.59927 l 0.1006,-1.06724 19.15571,0 0,0.0309 a 1.1339875,1.1339875 0 0 0 0,0.001 c 0.002,0.74183 0.0928,2.36337 0.20242,3.77381 l 0.11151,1.4351 -0.85876,0.1 c -0.54839,0.0637 -0.94643,0.0987 -1.15814,0.0958 -0.0181,-2.6e-4 -0.011,-6.2e-4 -0.0254,-0.001 -0.002,-0.006 -9.3e-4,-0.002 -0.003,-0.009 -0.0563,-0.19425 -0.12441,-0.57971 -0.20423,-1.11572 a 1.1339875,1.1339875 0 0 0 -6.2e-4,0 c -0.14624,-0.9797 -0.26577,-1.74533 -0.87755,-2.40052 -0.61178,-0.6552 -1.48006,-0.76483 -2.29689,-0.76483 l -1.2036,0 a 1.1339875,1.1339875 0 0 0 -1.1339,1.12906 l -0.0279,6.43857 c -0.0146,3.53754 -0.0488,7.36241 -0.0745,8.43244 l 0,6.2e-4 -0.0497,2.0163 a 1.1339875,1.1339875 0 0 0 0.99269,1.15269 l 1.54237,0.19332 0.0394,0.68604 a 1.1339875,1.1339875 0 0 0 0,6.2e-4 l 0.0249,0.42968 -9.48816,0 z m 14.89404,0 0,-0.37877 c 0,-0.28137 0.0198,-0.4467 0.0345,-0.59089 0.28028,-0.0554 0.63893,-0.12049 1.02724,-0.36545 0.40158,-0.25332 0.69782,-0.63659 0.94361,-1.08056 0.49158,-0.88797 0.97078,-2.22616 1.96963,-4.92166 0.87971,-2.37274 2.05759,-5.50746 2.61082,-6.94703 a 1.1339875,1.1339875 0 0 0 6.2e-4,-6.2e-4 c 0.5625,-1.46696 1.47431,-3.94281 2.03811,-5.53497 a 1.1339875,1.1339875 0 0 0 0,-6.2e-4 l 0.74725,-2.11447 3.54837,0 0.21453,0.57877 a 1.1339875,1.1339875 0 0 0 0,6.2e-4 c 0.22694,0.61145 1.84915,5.33646 3.52231,10.28025 1.50905,4.45596 2.25997,6.68591 2.81566,7.96277 0.27784,0.63843 0.5059,1.07399 0.87634,1.44055 0.37043,0.36657 0.84708,0.52465 1.10481,0.59877 a 1.1339875,1.1339875 0 0 0 0.001,6.2e-4 c 0.0832,0.0238 0.0779,0.0254 0.13333,0.0436 0.0141,0.1377 0.0364,0.3388 0.0364,0.65634 l 0,0.37271 -8.28215,0 0,-0.39332 c 0,-0.29671 0.0209,-0.47664 0.0358,-0.6224 0.003,-6.2e-4 0.002,-3.1e-4 0.005,-0.001 0.28129,-0.062 0.53541,-0.12718 0.74906,-0.19333 0.10683,-0.0331 0.1991,-0.0632 0.31393,-0.11272 0.0574,-0.0248 0.11707,-0.0478 0.22787,-0.1206 0.0554,-0.0364 0.12538,-0.081 0.2303,-0.19636 0.10491,-0.11538 0.29999,-0.34112 0.29999,-0.7727 0,-0.7868 -0.30022,-1.33865 -0.6418,-1.88963 -0.17079,-0.27549 -0.36092,-0.53204 -0.58786,-0.76422 -0.22693,-0.23218 -0.46426,-0.46991 -0.94784,-0.59998 a 1.1339875,1.1339875 0 0 0 -6.2e-4,0 c -0.58115,-0.15611 -1.00627,-0.11869 -1.67995,-0.11151 -0.67368,0.007 -1.4642,0.0423 -2.23023,0.0945 -0.76603,0.0522 -1.50164,0.1207 -2.07811,0.2 -0.28823,0.0396 -0.53097,0.0788 -0.75937,0.13575 -0.11419,0.0284 -0.2189,0.0539 -0.38059,0.12908 -0.0808,0.0376 -0.17956,0.0818 -0.32423,0.21091 -0.14468,0.12913 -0.39453,0.4221 -0.39453,0.87391 0,-0.19705 -0.01,0.0614 -0.0412,0.25635 -0.0315,0.19496 -0.0762,0.44574 -0.12545,0.69149 a 1.1339875,1.1339875 0 0 0 -6.3e-4,0.001 c -0.0463,0.23203 -0.0869,0.4342 -0.0982,0.68604 -0.0113,0.25184 0.009,0.61968 0.24726,0.97694 0.23788,0.35725 0.60854,0.53541 0.85997,0.61089 0.21812,0.0655 0.39511,0.0836 0.58362,0.10545 0.023,0.13573 0.0514,0.28073 0.0679,0.53816 l 0.017,0.26726 -6.68947,0 z m -57.96713,-6.73068 2.54052,0 c 1.01737,0 1.64744,-0.008 2.18417,-0.10242 0.26836,-0.0471 0.54729,-0.07 0.91633,-0.4012 0.18452,-0.1656 0.36571,-0.45613 0.41453,-0.74906 0.0488,-0.29294 -0.0113,-0.53715 -0.0752,-0.70422 a 1.1339875,1.1339875 0 0 0 -0.002,-0.004 c 0.0191,0.0495 -0.1704,-0.51537 -0.37514,-1.17209 -0.20473,-0.65671 -0.4662,-1.50875 -0.73391,-2.39385 -0.26928,-0.89003 -0.53398,-1.75162 -0.74422,-2.42538 -0.21024,-0.67375 -0.33351,-1.07742 -0.43392,-1.34177 -0.0708,-0.18644 -0.27879,-0.56049 -0.74543,-0.70422 -0.46709,-0.14387 -0.84161,0.0457 -1.003,0.15636 -0.32278,0.22121 -0.33526,0.32863 -0.40059,0.43271 -0.13067,0.20816 -0.2164,0.39916 -0.32484,0.64725 -0.21689,0.49619 -0.47322,1.17018 -0.7424,1.93145 -0.53835,1.52256 -1.1138,3.34935 -1.39147,4.59621 l -0.19029,0.85331 a 1.1339875,1.1339875 0 0 0 1.10662,1.38056 z m 65.44324,0 a 1.1339875,1.1339875 0 0 0 0.0103,0 l 2.55022,0 c 1.02088,0 1.65282,-0.008 2.19023,-0.10242 0.2687,-0.047 0.5475,-0.0697 0.91694,-0.39999 0.18472,-0.16513 0.36638,-0.45557 0.41574,-0.74906 0.0494,-0.2935 -0.0106,-0.53804 -0.0745,-0.70543 a 1.1339875,1.1339875 0 0 0 -0.002,-0.004 c 0.0159,0.0411 -0.17295,-0.51833 -0.37999,-1.17512 -0.20704,-0.65678 -0.47179,-1.50889 -0.7424,-2.39386 a 1.1339875,1.1339875 0 0 0 0,-0.001 c -0.2765,-0.90138 -0.55636,-1.75008 -0.78967,-2.40598 -0.11665,-0.32795 -0.22076,-0.60595 -0.31332,-0.83088 -0.0463,-0.11246 -0.0885,-0.21049 -0.13636,-0.30787 -0.0478,-0.0974 -0.0345,-0.15515 -0.26605,-0.39998 a 1.1339875,1.1339875 0 0 0 -6.2e-4,-6.2e-4 c -0.20718,-0.21873 -0.66668,-0.3964 -0.99452,-0.35332 -0.32783,0.0431 -0.49193,0.17423 -0.59816,0.2606 -0.21245,0.17273 -0.2596,0.2737 -0.3218,0.3715 -0.12441,0.19558 -0.20777,0.3757 -0.30727,0.60119 -0.19899,0.45098 -0.42499,1.04954 -0.66725,1.74479 -0.48445,1.39032 -1.02068,3.14175 -1.37389,4.59621 l 0,6.2e-4 -0.20727,0.8527 a 1.1339875,1.1339875 0 0 0 1.09148,1.40177 z m -89.28607,-3.41322 1.33571,0 c 0.61744,0 1.19173,-0.0503 1.7454,-0.29999 0.55353,-0.24966 0.97388,-0.63342 1.43934,-1.1139 0.48401,-0.49931 0.87637,-0.94928 1.10663,-1.55571 0.23026,-0.60642 0.24969,-1.19955 0.24969,-1.96296 0,-1.89095 -0.52479,-3.33539 -1.71388,-4.63984 -0.6348,-0.69701 -1.45568,-1.05395 -2.26901,-1.23208 -0.40667,-0.0891 -0.81247,-0.13044 -1.2436,-0.0697 -0.43112,0.0607 -0.97973,0.24357 -1.32723,0.79269 a 1.1339875,1.1339875 0 0 0 -0.001,0.002 c -0.18904,0.30011 -0.17419,0.39728 -0.20302,0.52907 -0.0288,0.13179 -0.0489,0.26189 -0.0679,0.40847 -0.038,0.29316 -0.0684,0.64726 -0.0945,1.06057 -0.0522,0.82662 -0.0843,1.8809 -0.0854,2.9902 l -0.005,3.95623 a 1.1339875,1.1339875 0 0 0 1.13392,1.13508 z m 56.1884,-3.34898 c 0.007,-0.10273 0.0264,-0.15744 0.0321,-0.16969 -0.0331,0.0881 -0.0149,0.1066 -0.0321,0.16969 z m 19.33874,-13.18682 c -0.5557,-0.0149 -1.11358,-0.0579 -1.49207,-0.11394 -0.0278,-0.004 -0.0293,-0.007 -0.0551,-0.0109 -0.0559,-0.1754 -0.0704,-0.21797 -0.15151,-0.48241 -0.16058,-0.52366 -0.36381,-1.1959 -0.56968,-1.88721 -3.42855,-11.52762 -12.0028,-21.655767 -22.62893,-26.69849 -2.81531,-1.336755 -6.87529,-2.758503 -9.58755,-3.364734 0.77008,-0.600876 1.61565,-1.287137 2.11326,-1.808423 a 1.1339875,1.1339875 0 0 0 0.002,-0.0025 c 0.19548,-0.205898 0.43017,-0.405084 0.60483,-0.526647 0.0392,-0.02728 0.0636,-0.02457 0.10363,-0.03758 0.0577,0.01905 0.29853,0.05183 0.74907,0.190296 0.54462,0.167387 1.25304,0.415606 2.04114,0.715128 1.5762,0.599048 3.4771,1.405175 5.1374,2.201138 11.09633,5.321365 19.34158,14.601761 23.52769,26.50456 a 1.1339875,1.1339875 0 0 0 0,6.2e-4 c 0.41097,1.16659 0.85609,2.71558 1.16663,3.98108 0.12782,0.52086 0.21308,0.93958 0.28423,1.31208 -0.36899,0.0226 -0.78828,0.0401 -1.24541,0.0279 z m -89.21031,-0.0564 c 0.0947,-0.83567 0.496,-2.5698 1.19511,-4.59561 0.78779,-2.28277 1.8541,-4.86786 2.92172,-6.974307 5.46413,-10.780776 17.03399,-20.211587 28.47176,-23.228912 l 0.84724,-0.223023 1.063,1.007846 c 0.55802,0.529036 1.13352,1.023608 1.67388,1.456315 -5.32824,1.012391 -11.92274,3.958563 -16.38732,7.317327 -8.01497,6.028426 -13.44231,13.702497 -16.13158,22.847104 l -0.68179,2.31871 -1.70358,0.0606 c -0.85639,0.0306 -1.00502,0.0176 -1.26844,0.0139 z m 91.03813,-0.0224 c 0.0861,-0.046 0.12477,-0.0208 0.0945,-0.0133 -0.0125,0.003 -0.0717,0.009 -0.0945,0.0133 z m -45.94026,-0.003 c -13.10186,0.0284 -22.11851,0.0249 -27.8524,-0.017 -2.86694,-0.0209 -4.91529,-0.0518 -6.2313,-0.0921 -0.26877,-0.008 -0.37217,-0.0182 -0.57998,-0.0273 0.01,-0.0319 0.004,-0.0213 0.0145,-0.0533 0.20058,-0.63658 0.48747,-1.4504 0.8121,-2.30659 0.64925,-1.71237 1.46236,-3.61941 2.01023,-4.65136 5.19905,-9.790272 14.54462,-16.597904 25.5955,-18.631487 3.53372,-0.649601 11.83702,-0.387695 14.98434,0.444227 10.54477,2.789629 19.18588,9.84279 23.75556,19.36298 l 0,6.2e-4 c 1.00018,2.08629 1.90915,4.72225 2.18175,5.89556 l -34.69035,0.0758 z m 54.65754,0.28978 c -0.64031,-0.0181 -1.28154,-0.0632 -1.73267,-0.12363 -0.10141,-0.0136 -0.13835,-0.0257 -0.21635,-0.04 -0.0495,-0.19964 -0.0747,-0.2968 -0.1606,-0.65816 -0.14303,-0.60191 -0.32586,-1.38104 -0.51272,-2.19023 -2.27279,-9.836067 -6.80356,-17.896726 -14.20194,-25.28157 -4.74857,-4.740104 -8.974,-7.795989 -14.38982,-10.394195 -3.27928,-1.573323 -9.00462,-3.604855 -11.47415,-3.987138 l 6.2e-4,6.2e-4 c -0.29914,-0.04645 -0.54938,-0.09322 -0.85512,-0.09091 -0.30574,0.0022 -0.70623,0.100742 -1.00118,0.319989 -0.5899,0.43849 -0.75988,0.950578 -1.20966,1.82236 a 0.92893968,0.92893968 0 0 0 0,6.21e-4 c -0.89965,1.744849 -2.44944,3.172059 -4.58166,4.154404 -0.91812,0.42215 -2.45061,0.681052 -3.96168,0.669674 -1.51108,-0.01139 -3.02296,-0.295008 -3.89624,-0.724217 -0.78912,-0.387971 -1.87961,-1.211875 -2.80718,-2.109626 -0.92756,-0.897751 -1.71211,-1.913056 -1.96963,-2.485372 a 0.92893968,0.92893968 0 0 0 -6.2e-4,-0.0012 c -0.19586,-0.433761 -0.41819,-0.803726 -0.70724,-1.110872 -0.28907,-0.307146 -0.68511,-0.599374 -1.23511,-0.599374 -0.5511,0 -1.08668,0.14743 -1.88176,0.359989 -0.79508,0.212557 -1.76078,0.505994 -2.79021,0.843608 -2.05867,0.675159 -4.3605,1.522755 -6.00465,2.255073 l -6.2e-4,0 c -7.31909,3.257299 -12.77296,7.201803 -17.94969,12.98623 -5.82209,6.504091 -10.61625,15.662793 -12.38201,23.691923 -0.19623,0.89174 -0.32617,1.53848 -0.43877,1.95569 -0.11261,0.41722 -0.21072,0.55253 -0.20545,0.54726 0.005,-0.005 0.0187,0.0191 -0.27999,0.0521 -0.29873,0.033 -0.81972,0.038 -1.54783,0.0636 a 0.92893968,0.92893968 0 0 0 -6.2e-4,0 c -0.62652,0.0223 -1.17693,0.015 -1.59328,-0.006 0.0188,-0.64567 0.10363,-1.52144 0.34424,-2.69203 0.32466,-1.57952 0.84733,-3.52263 1.52964,-5.63314 4.67255,-14.446102 14.94111,-26.376403 28.5057,-33.120699 4.76945,-2.3715 8.33033,-3.690728 12.47413,-4.630753 l 2.44355,-0.553918 a 0.92893968,0.92893968 0 0 0 0.63271,-0.506044 l 0.90542,-1.896905 c 1.17172,-2.451634 2.20655,-3.636092 3.99987,-4.658633 l 0,6.2e-4 c 4.23027,-2.410603 8.87303,-1.691984 12.12686,1.867816 0.74059,0.8104 1.65838,2.265678 1.91327,2.949597 l 0.6024,1.615703 a 0.92893968,0.92893968 0 0 0 0.64846,0.577556 l 3.37444,0.829062 c 18.85937,4.633241 34.0242,18.734805 40.17382,37.368418 a 0.92893968,0.92893968 0 0 0 0,6.2e-4 c 0.5892,1.784 1.19862,4.03883 1.62297,5.88283 0.21218,0.922 0.37863,1.74428 0.47272,2.33992 0.0209,0.13217 0.0241,0.19885 0.0376,0.30605 -0.028,0.002 -0.0355,0.006 -0.0649,0.008 -0.46661,0.0349 -1.11477,0.0436 -1.75509,0.0255 z m -25.06764,37.02602 0.0788,-3.25807 0.0794,-3.28837 2.16477,-0.0273 c 1.02872,-0.0127 1.64999,0.006 1.96963,0.0654 0.15982,0.0297 0.23388,0.069 0.25393,0.0849 0.0199,0.0157 0.0177,0.007 0.0279,0.06 0.0119,0.062 0.002,0.0368 0.0176,0.0139 0.0156,-0.0229 0.005,0.005 -0.10545,0.0376 -0.22046,0.0656 -0.74419,0.11843 -1.61994,0.15636 -1.02106,0.0443 -1.54654,0.0516 -1.94842,0.2206 -0.20095,0.0845 -0.37039,0.2484 -0.4515,0.4315 -0.0811,0.1831 -0.10039,0.3626 -0.12424,0.56968 -0.0239,0.20804 -0.0489,0.37899 -0.0176,0.57089 0.0313,0.1919 0.17771,0.40448 0.36726,0.50059 0.37912,0.1922 0.84881,0.18055 1.79934,0.22605 0.55455,0.0268 0.93245,0.0866 1.24784,0.14848 -0.26888,0.0492 -0.53135,0.10183 -0.99633,0.12424 l -1.92721,0.0933 a 0.32978717,0.32978717 0 0 0 -0.31211,0.29575 l -0.11757,1.15026 -0.11636,1.14905 a 0.32978717,0.32978717 0 0 0 0.31453,0.36302 l 2.2569,0.0921 c 0.28141,0.0113 0.37934,0.0388 0.60361,0.0564 -0.34147,0.0308 -0.6025,0.0701 -1.06905,0.0855 l -2.37568,0.0782 z m -61.79064,-0.005 c 0.007,-0.007 0.006,0.005 -0.10848,-0.0654 -0.29502,-0.18202 -0.80841,-0.71544 -1.33087,-1.50177 -0.31654,-0.47654 -0.6318,-0.90947 -0.89148,-1.23026 -0.12984,-0.16039 -0.24493,-0.29225 -0.34665,-0.39332 -0.0509,-0.0505 -0.0974,-0.0931 -0.15091,-0.13211 -0.0535,-0.0391 -0.0958,-0.0982 -0.26726,-0.0982 -0.2797,0 -0.47433,0.16014 -0.6424,0.34059 -0.16808,0.18045 -0.31571,0.40892 -0.44665,0.66725 -0.26189,0.51665 -0.45514,1.14479 -0.45514,1.71873 0,0.32531 -0.0427,0.54403 -0.083,0.6321 -0.0148,0.0323 -0.0174,0.0128 -0.0194,0.02 -0.0216,-0.0497 -0.057,-0.14216 -0.0842,-0.35089 -0.0628,-0.48175 -0.0848,-1.37374 -0.0848,-2.85324 0,-1.4795 0.022,-2.37149 0.0848,-2.85324 0.0272,-0.20805 0.0626,-0.29966 0.0842,-0.34968 0.004,0.007 0.006,-0.0125 0.0254,0.0273 0.0443,0.0918 0.0914,0.30748 0.0982,0.62301 0.013,0.59513 0.11672,1.30516 0.28242,1.72843 0.052,0.13341 0.0976,0.24036 0.15453,0.33756 0.057,0.0972 0.12583,0.21481 0.30606,0.26787 0.18022,0.0531 0.35822,-0.0443 0.44301,-0.12424 0.0848,-0.08 0.14154,-0.16467 0.20787,-0.26787 0.32319,-0.50309 1.12657,-1.30953 1.86358,-1.91508 0.33977,-0.27917 0.65503,-0.5024 0.91027,-0.65938 -0.14496,0.20405 -0.33521,0.44447 -0.67634,0.77755 -0.34794,0.33988 -0.66391,0.67691 -0.89815,0.95391 -0.11712,0.1385 -0.21317,0.26109 -0.28666,0.36847 -0.0368,0.0537 -0.0682,0.1032 -0.0952,0.15636 -0.0269,0.0532 -0.0606,0.098 -0.0606,0.22484 0,0.12602 0.0293,0.16248 0.0533,0.21697 0.024,0.0545 0.0528,0.10882 0.0879,0.1703 0.0702,0.12294 0.16504,0.27109 0.2806,0.44119 0.23111,0.34021 0.54473,0.76597 0.89027,1.2036 0.33361,0.42189 0.63808,0.85596 0.85452,1.20602 0.10822,0.17503 0.19458,0.32996 0.24969,0.44544 0.0551,0.11547 0.0661,0.21898 0.0661,0.15211 0,0.0646 -0.008,0.0878 -0.0146,0.11515 z m -33.3213,-0.001 c 0.003,-0.002 0.0274,-0.007 -0.001,-0.007 -8.6e-4,0 0.004,6.2e-4 0.004,0.001 1e-5,1e-5 -0.003,0.006 -0.002,0.005 z m 14.27346,0 c 0.003,-0.002 0.0274,-0.007 -0.001,-0.007 -8.1e-4,0 0.004,6.2e-4 0.004,0.001 1e-5,1e-5 -0.003,0.006 -0.002,0.005 z m 26.02821,-0.004 c 6.2e-4,-6.2e-4 0.0313,-0.002 -0.0582,-0.002 0.055,0 -0.0284,-0.008 -0.14605,-0.1 -0.11765,-0.0924 -0.27613,-0.24781 -0.45938,-0.45635 -0.36651,-0.41708 -0.83482,-1.04782 -1.36905,-1.85569 l -1.69085,-2.55992 a 0.32978717,0.32978717 0 0 0 -0.60422,0.16121 l -0.15515,2.45871 c -0.049,0.77711 -0.1225,1.39235 -0.20908,1.80478 -0.0263,0.12521 -0.0527,0.18916 -0.0794,0.27333 -0.007,-0.0379 -0.0172,-0.0377 -0.0194,-0.0848 a 0.32978717,0.32978717 0 0 0 0,-6.2e-4 c -0.0735,-1.48927 -0.0765,-3.03911 -0.0267,-4.2441 0.0249,-0.60249 0.0635,-1.11981 0.11151,-1.49328 0.0233,-0.18055 0.0488,-0.32331 0.0733,-0.42362 0.0385,0.0248 0.0562,0.0284 0.12364,0.0921 0.23253,0.21986 0.59041,0.66827 1.06784,1.35147 0.7434,1.06379 1.65032,2.29274 2.04963,2.77264 l 0.68846,0.82785 a 0.32978717,0.32978717 0 0 0 0.58301,-0.20969 l 0.01,-2.55991 c 0.004,-1.02722 0.0326,-1.66453 0.0939,-1.99509 0.0145,-0.0783 0.0228,-0.0786 0.0376,-0.12 0.0219,0.0665 0.044,0.10899 0.0649,0.26909 0.0628,0.48175 0.0848,1.37373 0.0848,2.85323 0,1.61264 -0.0181,2.51052 -0.0861,2.94415 -0.0339,0.21681 -0.0855,0.29768 -0.0848,0.29696 z m 36.27332,-6.2e-4 c -0.715,-0.0639 -1.37224,-0.31521 -1.58055,-0.54544 -0.19699,-0.21769 -0.31766,-0.44896 -0.41574,-0.94845 -0.0981,-0.4995 -0.15586,-1.25077 -0.19879,-2.41083 -0.0515,-1.39269 -0.0611,-2.13556 -0.006,-2.43082 0.0275,-0.14764 0.0462,-0.13864 0.0339,-0.13091 -0.0123,0.008 0.0414,-0.0127 0.18545,-0.0127 0.13821,0 0.1906,0.0188 0.18666,0.0163 -0.004,-0.002 0.0149,-0.004 0.0479,0.13394 0.066,0.27658 0.0873,0.97006 0.0873,2.25144 0,1.53132 0.0267,2.41723 0.33574,3.02838 0.15454,0.30558 0.40986,0.5294 0.7121,0.64119 0.30224,0.11179 0.63866,0.13454 1.03936,0.13454 0.36356,0 0.68571,-0.0413 0.97087,-0.17939 0.28517,-0.13812 0.51302,-0.37989 0.66059,-0.6927 0.29513,-0.62563 0.35393,-1.52689 0.35393,-2.96778 0,-0.76721 0.0349,-1.36053 0.0994,-1.77145 0.0645,-0.41093 0.19315,-0.62423 0.19756,-0.62786 a 0.32978717,0.32978717 0 0 0 0.001,-0.001 c 0.10461,-0.0871 0.12288,-0.0873 0.13757,-0.0976 6.2e-4,0.001 8e-5,3.1e-4 6.2e-4,0.002 0.0825,0.2292 0.14545,0.94934 0.14545,2.13326 0,1.24689 -0.10719,2.23724 -0.30424,2.94475 -0.19704,0.7075 -0.47897,1.10684 -0.77451,1.2648 a 0.32978717,0.32978717 0 0 0 -6.2e-4,0 c -0.42695,0.22841 -1.19999,0.33056 -1.91509,0.26666 z m -67.6662,-0.002 c -0.60313,0 -0.98916,-0.0407 -1.28117,-0.14061 -0.292,-0.0999 -0.51435,-0.25814 -0.81754,-0.56119 -0.65976,-0.65989 -1.01187,-1.71848 -1.00906,-2.74354 0.003,-1.02506 0.36119,-1.98866 0.99572,-2.4884 0.76724,-0.60308 1.50563,-0.85674 2.21569,-0.81088 0.71028,0.0459 1.41886,0.39404 2.11871,1.0939 0.37327,0.37392 0.55029,0.60343 0.65513,0.91451 0.10489,0.31122 0.13939,0.74678 0.13939,1.49753 0,0.75382 -0.0343,1.18869 -0.1406,1.50056 -0.10621,0.31172 -0.28736,0.54488 -0.66967,0.92784 -0.3657,0.36585 -0.61077,0.55237 -0.90543,0.6618 -0.29466,0.10942 -0.67398,0.14848 -1.30117,0.14848 z m 10.51541,0 c -0.008,0 -0.22046,-0.0781 -0.46666,-0.31939 -0.24619,-0.24125 -0.53934,-0.61265 -0.83936,-1.08057 -0.44088,-0.68683 -0.72882,-1.10183 -1.08421,-1.37086 -0.35539,-0.26903 -0.75804,-0.33211 -1.24298,-0.33211 l -1.0533,0 a 0.32978717,0.32978717 0 0 0 -0.32969,0.32969 l 0,1.55146 c 0,0.57531 -0.036,0.94955 -0.0873,1.12057 -0.0108,0.0361 -0.0114,0.0285 -0.02,0.0455 -0.0223,-0.0557 -0.0538,-0.13353 -0.0794,-0.32968 -0.0628,-0.48175 -0.0848,-1.37374 -0.0848,-2.85324 l 0,-3.23868 2.11508,0 c 0.77954,0 1.40739,0.0349 1.84963,0.097 0.22112,0.031 0.3966,0.0694 0.51271,0.10787 0.11611,0.0385 0.16519,0.0872 0.14484,0.0624 0.30067,0.36674 0.41139,0.99834 0.31333,1.55995 -0.0981,0.56161 -0.39326,0.99662 -0.71452,1.09875 -0.14898,0.0473 -0.29095,0.0859 -0.42847,0.22484 -0.13753,0.13899 -0.17385,0.39292 -0.12303,0.57029 0.10164,0.35473 0.36911,0.70295 0.86482,1.39389 a 0.32978717,0.32978717 0 0 0 0,6.2e-4 c 0.56626,0.78739 0.80597,1.19749 0.87391,1.35329 -0.0504,0.005 -0.0435,0.008 -0.1206,0.008 z m 4.46712,0 c -1.0628,0 -1.40881,-0.1208 -1.95327,-0.66362 -0.35558,-0.35629 -0.56709,-0.71004 -0.63331,-0.9539 -0.0331,-0.12194 -0.0302,-0.2114 -0.0152,-0.26484 0.004,-0.0133 0.0172,-0.018 0.0218,-0.0285 0.0253,0.0163 0.0373,0.0201 0.0703,0.0467 0.13919,0.11199 0.32527,0.30669 0.49756,0.53998 a 0.32978717,0.32978717 0 0 0 6.2e-4,6.2e-4 c 0.27042,0.36543 0.5352,0.63563 0.85573,0.81027 0.32036,0.17455 0.67993,0.23892 1.08905,0.23696 0.64255,-0.003 1.13907,-0.0914 1.50965,-0.27393 0.37057,-0.18254 0.6338,-0.5183 0.61876,-0.89511 -0.0151,-0.37682 -0.25176,-0.70234 -0.60846,-0.99513 -0.3567,-0.29278 -0.85563,-0.5622 -1.50116,-0.79754 -1.1452,-0.41758 -1.75225,-0.67538 -2.00478,-0.88058 -0.12627,-0.1026 -0.17022,-0.17398 -0.20545,-0.28848 -0.0352,-0.11449 -0.0497,-0.2863 -0.0497,-0.53392 0,-0.90971 0.61039,-1.50416 1.45511,-1.72842 0.84471,-0.22427 1.89007,-0.0293 2.64415,0.72482 0.15249,0.15249 0.29476,0.32714 0.3915,0.47271 0.0818,0.1231 0.0973,0.19968 0.10545,0.18303 -0.025,0.003 -0.0416,0.0113 -0.11636,-0.004 -0.21743,-0.0435 -0.56811,-0.22207 -0.8527,-0.50665 -0.40043,-0.40043 -0.85183,-0.64701 -1.33268,-0.68846 -0.48085,-0.0415 -0.96419,0.12639 -1.41449,0.45574 -0.26068,0.19054 -0.45499,0.40316 -0.53211,0.6727 -0.0771,0.26955 0.007,0.56667 0.18181,0.78543 0.35016,0.43752 0.99825,0.72846 1.96115,1.00845 a 0.32978717,0.32978717 0 0 0 0,6.2e-4 c 0.78823,0.22884 1.41733,0.55235 1.83145,0.90543 0.41413,0.35307 0.60362,0.71596 0.60362,1.05632 0,-0.0547 -0.0468,0.14318 -0.1703,0.33332 -0.1234,0.18994 -0.30198,0.41284 -0.49392,0.60544 -0.54487,0.54343 -0.89061,0.66422 -1.95387,0.66422 z m 66.54805,0 c 0.0394,0 0.0136,0.0139 -0.0703,-0.0776 -0.0839,-0.0915 -0.20407,-0.26651 -0.34302,-0.52422 -0.27789,-0.51543 -0.63964,-1.35911 -1.11269,-2.589 -0.58652,-1.52441 -0.92933,-2.61188 -1.02663,-3.20414 -0.0112,-0.068 -0.005,-0.0397 -0.007,-0.0933 0.0737,0.14026 0.16239,0.32194 0.26605,0.5521 0.22455,0.4986 0.50147,1.17048 0.7727,1.88843 0.2756,0.73054 0.55121,1.39353 0.77694,1.88114 0.11287,0.24381 0.21246,0.44292 0.29878,0.5921 0.0432,0.0746 0.0817,0.1358 0.12727,0.19333 0.0228,0.0288 0.0458,0.057 0.0854,0.0897 0.0397,0.0327 0.0988,0.0891 0.23817,0.0891 0.13942,0 0.19735,-0.056 0.23697,-0.0885 0.0396,-0.0325 0.0637,-0.0604 0.0867,-0.0891 0.0459,-0.0573 0.0846,-0.11867 0.12848,-0.19332 0.0877,-0.14932 0.18897,-0.34845 0.30423,-0.59271 0.23052,-0.48852 0.51268,-1.15314 0.79573,-1.88479 a 0.32978717,0.32978717 0 0 0 6.3e-4,0 c 0.36151,-0.9352 0.65186,-1.58524 0.88239,-1.97751 0.0952,-0.1619 0.17026,-0.25027 0.23636,-0.32301 -0.006,0.0533 0.003,0.0343 -0.017,0.11454 -0.11481,0.46941 -0.44407,1.36591 -1.03875,2.87748 -0.50789,1.28966 -0.89364,2.17524 -1.18723,2.71869 -0.1468,0.27173 -0.27253,0.45776 -0.3612,0.55635 -0.0887,0.0986 -0.11971,0.0842 -0.0733,0.0842 z m 26.09366,0 0,-3.23868 c 0,-1.4795 0.022,-2.37149 0.0849,-2.85324 0.0183,-0.14063 0.0365,-0.16798 0.057,-0.23635 0.0169,0.0553 0.029,0.0629 0.0442,0.16484 0.0618,0.41225 0.0854,1.1871 0.0854,2.45931 l 0,3.10293 a 0.32978717,0.32978717 0 0 0 0.32969,0.32968 l 1.7066,0 c 0.64613,0 1.06239,0.0339 1.25814,0.0873 0.0774,0.0211 0.09,0.0347 0.10061,0.0418 -0.0173,0.01 -0.0487,0.0318 -0.1606,0.0557 -0.26961,0.0577 -0.80786,0.0867 -1.66358,0.0867 l -1.84237,0 z m -2.11144,-0.004 c 0.0569,3.1e-4 -0.0209,-0.007 -0.1206,-0.0752 -0.0997,-0.0685 -0.23266,-0.18097 -0.37817,-0.32484 -0.29102,-0.28774 -0.63648,-0.70117 -0.95815,-1.16481 -0.33047,-0.47576 -0.65894,-0.90751 -0.92846,-1.22723 -0.13475,-0.15986 -0.25401,-0.29118 -0.35877,-0.3915 -0.0524,-0.0502 -0.0997,-0.0926 -0.15393,-0.13091 -0.0542,-0.0383 -0.0969,-0.0951 -0.26545,-0.0951 -0.42717,0 -0.74295,0.32706 -0.94724,0.7333 -0.20429,0.40625 -0.33367,0.93948 -0.38605,1.56601 -0.0261,0.31548 -0.0847,0.57446 -0.15272,0.75816 -0.0427,0.11541 -0.0722,0.13814 -0.10788,0.18726 -0.0303,-0.0552 -0.0604,-0.0851 -0.0945,-0.24665 -0.0147,-0.0695 -0.0438,-0.44683 -0.0533,-0.91634 -0.01,-0.46951 -0.009,-1.06154 0,-1.68358 0.0185,-1.24407 0.0733,-2.6162 0.14969,-3.37079 a 0.32978717,0.32978717 0 0 0 6.2e-4,-0.002 c -1.1e-4,0.001 0.07,-0.0897 0.17575,-0.0897 0.0284,0 0.002,-0.005 -10e-4,-0.007 -0.003,-0.002 0.0236,0.0254 0.0497,0.11636 0.0523,0.18185 0.0873,0.57413 0.0873,1.17996 l 0,1.61934 a 0.32978717,0.32978717 0 0 0 0.5612,0.23454 l 1.66903,-1.64904 c 0.50998,-0.50403 0.96973,-0.89571 1.32844,-1.1442 0.14648,-0.10147 0.26078,-0.1617 0.36484,-0.21272 -0.13109,0.17282 -0.27757,0.36481 -0.68665,0.77816 l -1.30783,1.32116 a 0.32978717,0.32978717 0 0 0 -0.0339,0.42362 l 1.40965,1.9757 c 0.7489,1.04949 1.10533,1.60291 1.20845,1.8363 -0.0389,0.004 -0.0161,0.002 -0.0697,0.002 z m -9.72452,-0.005 c -0.53699,0.003 -0.89283,-0.0362 -1.16057,-0.12909 -0.26774,-0.0928 -0.46658,-0.23591 -0.71755,-0.50301 -0.81609,-0.86846 -1.21766,-2.63348 -0.86239,-3.96472 0.35108,-1.31799 1.85474,-2.2988 3.11444,-2.06235 0.62989,0.11789 1.18468,0.35754 1.56237,0.63573 0.37769,0.2782 0.5521,0.5791 0.5521,0.79574 0,0.11924 -0.0143,0.14886 -0.0254,0.19211 -0.0737,-0.0301 -0.3637,-0.18304 -0.78058,-0.59937 -0.52448,-0.52503 -1.07197,-0.83229 -1.65207,-0.83513 -0.58023,-0.003 -1.12739,0.3002 -1.64843,0.82058 a 0.32978717,0.32978717 0 0 0 -6.2e-4,6.2e-4 c -0.97744,0.97889 -1.15564,2.75324 -0.46422,4.06714 a 0.32978717,0.32978717 0 0 0 6.2e-4,6.2e-4 c 0.25486,0.48354 0.51296,0.83509 0.89633,1.04724 0.38337,0.21214 0.83515,0.26361 1.44844,0.26665 0.41689,0.002 0.75283,-0.0401 1.03996,-0.20181 0.28713,-0.16167 0.47991,-0.43046 0.6315,-0.76179 a 0.32978717,0.32978717 0 0 0 0,-6.2e-4 c 0.0743,-0.16337 0.20055,-0.32355 0.32908,-0.4315 0.12852,-0.10795 0.25971,-0.1509 0.29453,-0.1509 0.0952,0 0.12432,0.007 0.17636,0.0127 -0.005,0.0161 2e-5,0.001 -0.008,0.0212 -0.046,0.11557 -0.13073,0.2871 -0.24969,0.51029 -0.27043,0.50755 -0.53171,0.79866 -0.89149,0.98663 -0.35977,0.18798 -0.85118,0.27777 -1.58479,0.28302 z m -54.10302,-0.003 c 0.0286,-0.0114 0.0389,0.0129 -0.0491,-0.0436 -0.088,-0.0565 -0.23009,-0.18612 -0.39877,-0.38363 -0.33737,-0.39501 -0.79018,-1.05446 -1.36359,-1.94963 a 0.32978717,0.32978717 0 0 0 0,-6.2e-4 l -1.65207,-2.5787 a 0.32978717,0.32978717 0 0 0 -0.60665,0.15757 l -0.15514,2.45871 c -0.0525,0.83211 -0.13218,1.45519 -0.2309,1.85509 -0.0494,0.19994 -0.10538,0.34337 -0.14909,0.41937 -0.0437,0.076 -0.0607,0.0651 -0.0249,0.0558 0.0461,-0.012 0.0349,0.0122 -0.0588,-0.0794 0.0888,0.0915 0.052,0.0817 0.043,0.0436 -0.009,-0.0402 -0.022,-0.11153 -0.0339,-0.20302 -0.0238,-0.18299 -0.047,-0.44788 -0.0661,-0.76725 -0.0381,-0.63872 -0.0618,-1.49896 -0.0618,-2.4181 0,-1.56755 0.0173,-2.41668 0.0867,-2.79808 0.0347,-0.1907 0.0774,-0.23184 0.0697,-0.22545 -0.008,0.006 0.004,-0.008 0.12484,-0.008 0.009,0 0.26822,0.10835 0.61513,0.48907 0.34691,0.38072 0.79689,0.98582 1.35208,1.82236 l -6.2e-4,0 c 0.45273,0.68294 0.89142,1.28632 1.24056,1.71692 0.17458,0.2153 0.3253,0.38636 0.45514,0.51089 0.0649,0.0623 0.12174,0.11297 0.19454,0.15817 0.0364,0.0226 0.0767,0.0453 0.14181,0.0618 0.0651,0.0165 0.17839,0.0254 0.28666,-0.0412 a 0.32978717,0.32978717 0 0 0 6.2e-4,0 c 0.14869,-0.0918 0.15698,-0.17144 0.18303,-0.23878 0.026,-0.0673 0.0433,-0.1354 0.06,-0.21333 0.0333,-0.15585 0.0598,-0.34966 0.0824,-0.57998 0.0452,-0.46063 0.0721,-1.06208 0.0721,-1.7066 0,-0.92848 0.0278,-1.50236 0.0867,-1.78843 0.0183,-0.089 0.0289,-0.0963 0.043,-0.12666 0.0183,0.0497 0.0426,0.10117 0.0618,0.27453 0.0509,0.45778 0.0496,1.33105 0.0121,2.81021 -0.0284,1.13626 -0.0733,1.99507 -0.15514,2.56537 -0.0409,0.28515 -0.0925,0.49863 -0.14303,0.62483 -0.0505,0.1262 -0.091,0.13744 -0.0624,0.12605 z m 71.97999,-0.006 c 0.0256,0.024 -0.0298,-0.0411 -0.0624,-0.2509 -0.0652,-0.4197 -0.083,-1.31697 -0.083,-2.92778 0,-1.45032 0.0692,-2.39591 0.16666,-2.99747 0.0149,0.15978 0.0297,0.30283 0.0442,0.51513 0.045,0.65476 0.0861,1.52894 0.11273,2.45931 l 0,6.2e-4 c 0.0418,1.50867 0.0465,2.36398 -0.008,2.79809 -0.0275,0.2171 -0.0728,0.31554 -0.0885,0.33696 -0.0156,0.0213 -0.002,0.0174 -0.0788,0.0321 -0.0847,0.0163 -0.0281,0.01 -0.002,0.0339 z m 2.82718,-0.004 c 0.0452,-0.0113 0.0303,0.01 -0.0606,-0.0788 0.0837,0.087 0.0513,0.0806 0.0424,0.043 -0.01,-0.0402 -0.022,-0.11152 -0.0339,-0.20302 -0.0238,-0.18299 -0.047,-0.44788 -0.0661,-0.76725 -0.0381,-0.63872 -0.0618,-1.49896 -0.0618,-2.4181 0,-1.56755 0.0173,-2.41668 0.0867,-2.79808 0.0347,-0.1907 0.0774,-0.23184 0.0697,-0.22545 -0.008,0.006 0.004,-0.008 0.12485,-0.008 0.009,0 0.26827,0.10856 0.61574,0.48968 0.34746,0.38112 0.79813,0.98707 1.35389,1.82539 a 0.32978717,0.32978717 0 0 0 6.2e-4,0 c 0.45152,0.68048 0.87271,1.2871 1.19208,1.72115 0.15968,0.21703 0.2932,0.38988 0.39756,0.51332 0.0522,0.0617 0.0948,0.10975 0.14363,0.15454 0.0244,0.0224 0.0462,0.0448 0.0994,0.0739 0.0266,0.0146 0.0615,0.0342 0.13152,0.0424 0.07,0.008 0.19925,-0.0162 0.27938,-0.0964 0.089,-0.089 0.0809,-0.12298 0.0909,-0.15393 0.0101,-0.031 0.016,-0.0556 0.0212,-0.0818 0.0105,-0.0524 0.0184,-0.10919 0.0267,-0.17818 0.0164,-0.13796 0.0319,-0.32025 0.0467,-0.53937 0.0296,-0.43824 0.0557,-1.02205 0.0715,-1.65207 0.0236,-0.95058 0.0665,-1.51913 0.13878,-1.80054 0.0362,-0.14071 0.0745,-0.19862 0.0951,-0.21999 0.0206,-0.0214 0.0344,-0.032 0.1103,-0.0467 0.0981,-0.019 0.0606,-0.003 0.023,-0.0352 -0.0376,-0.0318 0.0139,0.0112 0.0412,0.2109 0.0546,0.39935 0.0491,1.28518 0.009,2.89748 -0.0287,1.13414 -0.0721,1.99142 -0.15212,2.56234 -0.04,0.28546 -0.0911,0.49986 -0.14121,0.62786 -0.05,0.12799 -0.0924,0.14303 -0.0654,0.13151 0.027,-0.0115 0.0427,0.0123 -0.043,-0.0406 -0.0858,-0.0529 -0.22703,-0.17787 -0.39514,-0.36968 -0.33622,-0.38363 -0.79012,-1.02785 -1.36662,-1.90297 l -1.66418,-2.52658 a 0.32978717,0.32978717 0 0 0 -0.60423,0.16 l -0.15514,2.40719 c -0.0525,0.81558 -0.13229,1.42757 -0.2309,1.81933 -0.0493,0.19588 -0.10475,0.33609 -0.14788,0.40968 -0.0431,0.0736 -0.059,0.0616 -0.0236,0.0527 z m 10.48934,0 c -0.70033,0.013 -1.39366,-0.11179 -1.84539,-0.34059 a 0.32978717,0.32978717 0 0 0 -6.2e-4,-6.2e-4 c -0.51587,-0.26065 -0.84657,-0.61125 -1.05815,-1.1333 -0.21158,-0.52205 -0.29126,-1.22941 -0.22423,-2.15872 0.0475,-0.66722 0.11775,-1.09063 0.23878,-1.39389 0.12096,-0.30311 0.28888,-0.50947 0.60604,-0.7824 1.1053,-0.95055 2.00786,-1.11979 3.41382,-0.63452 0.49115,0.17004 0.7694,0.31354 0.90967,0.44665 0.14027,0.13312 0.19353,0.26362 0.22847,0.56847 0.0208,0.18084 0.01,0.28445 -0.001,0.37271 -0.0817,-0.0713 -0.18774,-0.18068 -0.31271,-0.36241 -0.3305,-0.48097 -0.99084,-0.82584 -1.63086,-0.94906 -0.43937,-0.0851 -0.80885,-0.10414 -1.16723,0.0345 -0.35838,0.13868 -0.66256,0.40199 -1.06724,0.80603 a 0.32978717,0.32978717 0 0 0 -6.2e-4,0 c -1.21494,1.21561 -1.27424,2.83298 -0.59695,3.96168 0.67729,1.1287 2.12161,1.77129 3.6823,1.11512 0.64814,-0.27272 1.07767,-0.74573 1.19511,-1.25087 0.0587,-0.25257 0.0275,-0.53822 -0.14848,-0.7527 -0.17602,-0.21448 -0.46226,-0.31696 -0.7824,-0.31696 -0.36242,0 -0.72344,-0.0751 -0.96663,-0.17575 -0.0194,-0.008 -0.0229,-0.0153 -0.0406,-0.0237 0.25125,-0.0414 0.59333,-0.0721 0.98179,-0.0721 l 1.22178,0 0,1.05876 c 0,0.60223 -0.0389,0.91929 -0.12182,1.08784 -0.0829,0.16855 -0.22789,0.28079 -0.61513,0.48119 -0.48797,0.25213 -1.1972,0.40149 -1.89751,0.41454 z m -69.6631,-0.002 c -0.59332,-0.026 -1.22582,-0.19955 -1.47268,-0.38666 a 0.32978717,0.32978717 0 0 0 -6.2e-4,0 c -0.33171,-0.2507 -0.5208,-0.77346 -0.49695,-1.32965 0.0239,-0.55619 0.25971,-1.10684 0.63573,-1.39025 0.32362,-0.24384 0.54838,-0.40984 0.64726,-0.70543 0.0494,-0.1478 0.0362,-0.32047 -0.017,-0.45453 -0.0532,-0.13407 -0.13257,-0.24163 -0.22544,-0.35393 a 0.32978717,0.32978717 0 0 0 -6.2e-4,-6.2e-4 c -0.21244,-0.25568 -0.27354,-0.5125 -0.24424,-0.77634 0.0293,-0.26384 0.16204,-0.53549 0.37029,-0.76058 0.41652,-0.45019 1.09234,-0.69119 1.74298,-0.39453 a 0.32978717,0.32978717 0 0 0 6.2e-4,0 c 0.33957,0.1545 0.56656,0.52213 0.62119,0.9333 0.0546,0.41117 -0.0691,0.82571 -0.35636,1.06421 a 0.32978717,0.32978717 0 0 0 0,6.2e-4 c -0.33619,0.27937 -0.55101,0.62674 -0.56482,1.00481 -0.0138,0.37807 0.18477,0.73841 0.51089,1.00906 0.1772,0.14689 0.37115,0.2598 0.60301,0.2606 0.23186,9.3e-4 0.43428,-0.12339 0.58968,-0.27878 0.083,-0.083 0.14287,-0.10106 0.17393,-0.10424 0.0311,-0.003 0.0438,6.2e-4 0.0691,0.0224 0.0505,0.0438 0.13213,0.2047 0.0461,0.47453 a 0.32978717,0.32978717 0 0 0 -6.2e-4,0.001 c -0.15753,0.50166 -0.0464,1.12778 0.21878,1.62358 l 0,6.2e-4 c 0.10512,0.19679 0.15844,0.34359 0.18423,0.44544 -0.0899,-0.0233 -0.2095,-0.0624 -0.38483,-0.15636 a 0.32978717,0.32978717 0 0 0 -6.2e-4,0 c -0.26799,-0.14312 -0.50175,-0.23556 -0.74907,-0.24181 -0.24731,-0.006 -0.48993,0.10534 -0.65876,0.27332 a 0.32978717,0.32978717 0 0 0 -6.2e-4,6.3e-4 c -0.0402,0.0403 -0.19968,0.1239 -0.42726,0.16908 -0.22758,0.0452 -0.51673,0.0633 -0.81331,0.0503 z m -23.04285,-0.0212 c -0.009,-0.006 -0.0187,-0.0143 -0.0309,-0.0242 -0.009,-0.0413 -0.0209,-0.10519 -0.0321,-0.1915 -0.0238,-0.18299 -0.047,-0.44789 -0.0661,-0.76725 -0.0381,-0.63873 -0.0618,-1.49896 -0.0618,-2.4181 0,-1.35157 0.0236,-2.19064 0.0849,-2.65385 0.0275,-0.20814 0.0649,-0.31113 0.0867,-0.35999 0.0162,0.004 0.0475,-2.4e-4 0.0642,0.0194 0.0314,0.0369 0.0966,0.16713 0.1412,0.42969 0.0892,0.52511 0.11031,1.52675 0.0885,3.20655 -0.0135,1.00549 -0.0603,1.74795 -0.13878,2.2272 -0.0393,0.23963 -0.088,0.41328 -0.1303,0.50786 -0.0157,0.035 0.002,0.0135 -0.005,0.0242 z m 40.64529,-0.002 c -0.009,-0.006 -0.0188,-0.0145 -0.0315,-0.0249 -0.008,-0.0346 -0.0191,-0.0861 -0.0297,-0.15818 -0.0234,-0.15803 -0.0459,-0.38822 -0.0649,-0.66482 -0.0379,-0.55322 -0.0618,-1.29623 -0.0618,-2.08599 l 0,-2.89566 a 0.32978717,0.32978717 0 0 0 -0.32968,-0.32969 l -1.08603,0 c -0.35896,0 -0.59938,-0.0421 -0.69755,-0.0842 -0.0583,-0.025 -0.0368,-0.0275 -0.0352,-0.0303 0.0302,-0.0152 0.0885,-0.045 0.24424,-0.0709 0.36543,-0.0609 1.06169,-0.0861 2.19507,-0.0861 1.13338,0 1.82965,0.0252 2.19508,0.0861 0.15571,0.0259 0.21402,0.0557 0.24424,0.0709 0.002,0.003 0.0225,0.006 -0.0345,0.0303 -0.0966,0.0419 -0.33353,0.0842 -0.68725,0.0842 l -1.0739,0 a 0.32978717,0.32978717 0 0 0 -0.32969,0.31999 l -0.0897,3.00051 c -0.0303,1.0294 -0.0882,1.78783 -0.17454,2.27871 -0.0432,0.24543 -0.095,0.42436 -0.13999,0.52361 -0.0216,0.0477 -0.005,0.0271 -0.0127,0.0364 z m -83.80323,-0.008 c -0.0221,-0.0546 -0.0532,-0.13163 -0.0788,-0.32605 -0.0628,-0.47709 -0.0848,-1.3612 -0.0848,-2.82717 l 0,-3.23323 1.16784,-0.0836 a 0.32978717,0.32978717 0 0 0 6.2e-4,0 c 1.05241,-0.0772 1.83261,-0.0686 2.31022,0.0115 0.23881,0.04 0.39895,0.10157 0.46787,0.14666 0.0387,0.0253 0.0256,0.022 0.0273,0.0255 -0.0191,0.0109 -0.0395,0.0268 -0.12788,0.0479 -0.23033,0.055 -0.68656,0.0873 -1.38298,0.0873 l -1.86175,0 a 0.32978717,0.32978717 0 0 0 -0.32969,0.32968 l 0,2.17205 a 0.32978717,0.32978717 0 0 0 0.32969,0.32969 l 1.69691,0 c 0.61889,0 0.94801,0.0329 1.11814,0.0691 -0.0325,0.0325 -0.0351,0.0629 -0.18363,0.10363 -0.2235,0.0613 -0.59572,0.0988 -1.11269,0.0988 l -1.51873,0 a 0.32978717,0.32978717 0 0 0 -0.32969,0.32969 l 0,1.55146 c 0,0.57531 -0.036,0.94954 -0.0873,1.12057 -0.0111,0.037 -0.0119,0.0297 -0.0206,0.0467 z m 55.87387,-0.0194 c -0.51638,-0.0486 -1.00212,-0.17677 -1.37995,-0.38181 a 0.32978717,0.32978717 0 0 0 -6.3e-4,0 c -1.07332,-0.58209 -1.48067,-1.88528 -1.28662,-3.18292 0.19406,-1.29764 0.98873,-2.51229 2.22174,-2.88172 0.80604,-0.24116 1.62878,-0.20389 2.23871,0.0206 0.60994,0.2245 0.97779,0.60494 1.03088,1.06057 0.0167,0.14355 0.009,0.19781 0.0103,0.28848 -0.13289,-0.11148 -0.30722,-0.27948 -0.52907,-0.51877 -0.32182,-0.347 -0.59299,-0.58599 -0.93027,-0.70482 -0.33729,-0.11883 -0.68966,-0.094 -1.11815,-0.008 a 0.32978717,0.32978717 0 0 0 -6.2e-4,0 c -0.81664,0.16356 -1.46032,0.50145 -1.88478,1.04482 -0.42446,0.54336 -0.6121,1.26302 -0.6121,2.13568 0,0.57176 0.0367,0.99387 0.16969,1.35935 0.13299,0.36548 0.36868,0.65068 0.68361,0.90603 a 0.32978717,0.32978717 0 0 0 6.2e-4,0 c 0.74015,0.59881 1.7632,0.7539 2.62961,0.6024 0.43321,-0.0757 0.83206,-0.22959 1.14299,-0.47816 0.31094,-0.24857 0.53211,-0.61594 0.53211,-1.03997 0,-0.25588 -0.0734,-0.5047 -0.24727,-0.68301 -0.17391,-0.1783 -0.42361,-0.25695 -0.67755,-0.25695 -0.36243,0 -0.72344,-0.0751 -0.96663,-0.17576 -0.0164,-0.007 -0.0192,-0.013 -0.0345,-0.02 0.26264,-0.0391 0.61725,-0.0657 0.97936,-0.0709 0.37735,-0.005 0.75819,0.0105 1.03027,0.0448 0.10433,0.0132 0.16946,0.0297 0.22908,0.0448 0.0355,0.3508 0.0521,1.27241 0.007,1.78842 -0.0123,0.1396 -0.0879,0.28136 -0.25696,0.43211 -0.16905,0.15075 -0.42652,0.29605 -0.73937,0.41089 -0.6257,0.22969 -1.46653,0.3372 -2.24113,0.26424 z m 10.20511,-0.2109 c 0.42456,-0.0157 0.86598,-0.0995 1.20723,-0.31636 0.11177,-0.0708 0.22261,-0.16056 0.29575,-0.29999 0.0733,-0.13971 0.0834,-0.31353 0.0491,-0.45998 -0.0687,-0.29291 -0.25172,-0.55113 -0.54786,-0.95148 -0.20378,-0.27518 -0.40948,-0.5241 -0.58544,-0.7121 -0.088,-0.094 -0.16728,-0.17219 -0.24363,-0.23575 -0.0382,-0.0318 -0.075,-0.0603 -0.1206,-0.0873 -0.0456,-0.027 -0.0929,-0.0654 -0.2206,-0.0654 -0.31204,0 -0.55876,0.18392 -0.73816,0.39998 -0.17939,0.21606 -0.3115,0.48348 -0.4024,0.76786 -0.0909,0.28438 -0.13951,0.58475 -0.12546,0.8733 0.0141,0.28856 0.0887,0.58012 0.30606,0.79694 0.15062,0.15056 0.32845,0.20742 0.51755,0.24666 0.18929,0.0393 0.39606,0.0515 0.60847,0.0436 z m -57.23625,-0.0115 c 0.70613,0.01 1.41912,-0.14793 1.84236,-0.63028 0.69105,-0.78707 0.97351,-1.83006 0.89391,-2.78899 -0.0796,-0.95893 -0.53133,-1.86328 -1.36965,-2.29629 -0.64396,-0.33351 -1.14777,-0.51692 -1.65146,-0.4612 -0.50369,0.0557 -0.92486,0.35277 -1.38662,0.81452 -0.57052,0.57052 -0.84025,1.47509 -0.88603,2.36538 -0.0458,0.89029 0.12437,1.78577 0.66665,2.33567 0.4607,0.46707 1.18476,0.65138 1.89084,0.66119 z m 7.78216,-3.11989 c 0.58318,-0.0415 1.13199,-0.15114 1.51328,-0.42968 0.42272,-0.30934 0.67037,-0.8254 0.57271,-1.33632 -0.0595,-0.31183 -0.28725,-0.62197 -0.64058,-0.75149 -0.35334,-0.12953 -0.81595,-0.1705 -1.55995,-0.20969 a 0.32978717,0.32978717 0 0 0 -6.2e-4,0 l -1.78176,-0.0933 a 0.32978717,0.32978717 0 0 0 -0.34665,0.32908 l 0,0.92118 c 0,0.29125 0.0476,0.56993 0.13333,0.80785 0.0857,0.23778 0.18416,0.46345 0.46059,0.57513 0.4651,0.18779 1.0665,0.22872 1.64964,0.18727 z m 49.9371,-0.88906 c 0.24972,0 0.49381,-0.0795 0.66604,-0.25151 0.17223,-0.17197 0.25211,-0.41614 0.25211,-0.66603 0,-0.46035 -0.2463,-0.84709 -0.59816,-1.02361 -0.35186,-0.17652 -0.82252,-0.12268 -1.1442,0.19878 -0.32151,0.32152 -0.37569,0.79166 -0.19939,1.1436 0.17631,0.35194 0.56321,0.59877 1.0236,0.59877 z m -13.769,21.60029 -0.52344,0.70703 0.0352,0 0.61133,-0.70703 -0.12305,0 z m 11.0918,0.14258 0,0.4082 0.41015,0 0,-0.4082 -0.41015,0 z m 1.91015,0 0,0.4082 0.40821,0 0,-0.4082 -0.40821,0 z m -53.13867,1.70898 c -0.7524,0 -1.30387,0.17344 -1.69531,0.49219 -0.38789,0.31867 -0.57227,0.72136 -0.57227,1.29687 0,0.49901 0.13763,0.83834 0.4043,1.0918 0.26683,0.25362 0.74572,0.47491 1.44922,0.61523 l 0.60156,0.11719 a 0.29102404,0.29102404 0 0 1 0.002,0 c 0.52981,0.10665 0.9368,0.26448 1.21875,0.52539 0.2833,0.2595 0.42579,0.63569 0.42579,1.05274 0,0.48251 -0.20495,0.91221 -0.58008,1.18359 -0.37445,0.27088 -0.87138,0.38672 -1.47266,0.38672 -0.40035,0 -0.8058,-0.0603 -1.21484,-0.18164 -0.26475,-0.0785 -0.53579,-0.21924 -0.80469,-0.3457 l 0,0.35546 c 0.33326,0.11355 0.66209,0.21666 0.97266,0.2793 0.37446,0.0749 0.72379,0.11133 1.04687,0.11133 0.87605,0 1.5023,-0.17734 1.90235,-0.48633 0.40345,-0.3095 0.5996,-0.73388 0.5996,-1.375 0,-0.53489 -0.14763,-0.91717 -0.4414,-1.21094 a 0.29102404,0.29102404 0 0 1 -0.002,-0.002 c -0.28977,-0.29519 -0.77495,-0.52704 -1.4746,-0.66016 a 0.29102404,0.29102404 0 0 1 -0.004,0 l -0.5957,-0.12304 0.006,0 c -0.56156,-0.10487 -0.96191,-0.22836 -1.23633,-0.45703 a 0.29102404,0.29102404 0 0 1 -0.004,-0.002 c -0.26292,-0.22725 -0.38867,-0.57365 -0.38867,-0.95312 0,-0.45679 0.1959,-0.867 0.55469,-1.125 a 0.29102404,0.29102404 0 0 1 0.002,0 c 0.36167,-0.2572 0.83934,-0.36719 1.41406,-0.36719 0.33621,0 0.68115,0.0469 1.03516,0.14063 0.22095,0.0585 0.4606,0.16889 0.69531,0.26367 l 0,-0.31836 c -0.28789,-0.0877 -0.57501,-0.16892 -0.84961,-0.2168 -0.33872,-0.0591 -0.66934,-0.0879 -0.99414,-0.0879 z m 59.83008,0 c -1.08268,0 -1.8819,0.30652 -2.4668,0.91211 -0.58022,0.60153 -0.88086,1.44178 -0.88086,2.58008 0,1.13488 0.30002,1.97495 0.88086,2.58008 0.58484,0.60256 1.38401,0.9082 2.4668,0.9082 0.49536,0 0.95453,-0.0652 1.38476,-0.19336 0.38539,-0.11753 0.72807,-0.29953 1.05274,-0.51367 l 0,-2.66016 -2.00586,0 0,0.22852 1.32031,0 a 0.29102404,0.29102404 0 0 1 0.29102,0.29101 l 0,1.95703 a 0.29102404,0.29102404 0 0 1 -0.14453,0.25196 c -0.24571,0.143 -0.51924,0.24677 -0.81836,0.31445 a 0.29102404,0.29102404 0 0 1 -0.004,0.002 c -0.29833,0.0639 -0.62952,0.0937 -0.99414,0.0937 -0.94588,0 -1.71502,-0.27248 -2.22851,-0.84179 a 0.29102404,0.29102404 0 0 1 0,-0.002 c -0.50971,-0.56922 -0.74219,-1.38913 -0.74219,-2.41601 0,-1.03001 0.2324,-1.85061 0.74219,-2.41992 a 0.29102404,0.29102404 0 0 1 0,-0.002 c 0.51349,-0.56931 1.28263,-0.84179 2.22851,-0.84179 0.48596,0 0.95487,0.0849 1.39844,0.2539 0.27258,0.10384 0.51547,0.29407 0.76758,0.45899 l 0,-0.35157 c -0.30194,-0.1749 -0.6187,-0.3273 -0.97266,-0.42382 -0.3999,-0.1099 -0.82405,-0.16602 -1.27539,-0.16602 z m 10.45898,0 c -0.8491,0 -1.47751,0.29561 -1.97461,0.91992 a 0.29102404,0.29102404 0 0 1 -0.002,0 c -0.49704,0.62132 -0.75586,1.46595 -0.75586,2.57227 0,1.1909 0.2223,2.06921 0.61914,2.64648 0.39714,0.57396 0.92442,0.8418 1.69336,0.8418 0.67628,0 1.17433,-0.19511 1.56055,-0.58984 0.38645,-0.39497 0.58008,-0.90828 0.58008,-1.59961 0,-0.71067 -0.18996,-1.22667 -0.5586,-1.60938 a 0.29102404,0.29102404 0 0 1 -0.002,0 c -0.36578,-0.38547 -0.84838,-0.58008 -1.52148,-0.58008 -0.30517,0 -0.57273,0.0665 -0.82032,0.19727 a 0.29102404,0.29102404 0 0 1 -0.004,0 c -0.247,0.12766 -0.44814,0.30829 -0.61524,0.55469 a 0.29102404,0.29102404 0 0 1 -0.53125,-0.17969 c 0.0507,-0.92319 0.25045,-1.64512 0.64649,-2.1543 a 0.29102404,0.29102404 0 0 1 0.002,-0.002 c 0.40008,-0.50955 1.00643,-0.76953 1.72266,-0.76953 0.27023,0 0.54228,0.0326 0.81445,0.0996 0.13332,0.0325 0.26175,0.0941 0.39258,0.14062 l 0,-0.26758 c -0.18928,-0.0602 -0.37911,-0.12055 -0.55469,-0.15429 -0.23247,-0.0453 -0.4624,-0.0664 -0.69141,-0.0664 z m -81.74609,0.13086 0,6.70898 0.4043,0 0,-3.2207 a 0.29102404,0.29102404 0 0 1 0.49609,-0.20508 l 3.41797,3.42578 0.47656,0 -3.38281,-3.39648 a 0.29102404,0.29102404 0 0 1 0.008,-0.41797 l 3.08008,-2.89453 -0.41797,0 -3.1875,3.00195 a 0.29102404,0.29102404 0 0 1 -0.49023,-0.21093 l 0,-2.79102 -0.4043,0 z m 6.5625,0 0,6.70898 0.4043,0 0,-6.70898 -0.4043,0 z m 8.28711,0 0,0.24805 2.29687,0 a 0.29102404,0.29102404 0 0 1 0.29102,0.29101 l 0,6.16992 0.4082,0 0,-6.16992 a 0.29102404,0.29102404 0 0 1 0.29102,-0.29101 l 2.29687,0 0,-0.24805 -5.58398,0 z m 8.13086,0 -2.56055,6.70898 0.41211,0 0.5957,-1.67773 a 0.29102404,0.29102404 0 0 1 0.27344,-0.19336 l 3.28711,0 a 0.29102404,0.29102404 0 0 1 0.27344,0.19336 l 0.5957,1.67773 0.39844,0 -2.55859,-6.70898 -0.7168,0 z m 10.01953,0 -2.56055,6.70898 0.41211,0 0.59571,-1.67773 a 0.29102404,0.29102404 0 0 1 0.27343,-0.19336 l 3.28711,0 a 0.29102404,0.29102404 0 0 1 0.27344,0.19336 l 0.5957,1.67773 0.39844,0 -2.55859,-6.70898 -0.7168,0 z m 5.04687,0 0,6.70898 3.95508,0 0,-0.24804 -3.25976,0 a 0.29102404,0.29102404 0 0 1 -0.29102,-0.29102 l 0,-6.16992 -0.4043,0 z m 5.56641,0 0,6.70898 3.95508,0 0,-0.24804 -3.25977,0 a 0.29102404,0.29102404 0 0 1 -0.29101,-0.29102 l 0,-6.16992 -0.4043,0 z m 5.56641,0 0,6.70898 4.11523,0 0,-0.24804 -3.41992,0 a 0.29102404,0.29102404 0 0 1 -0.29102,-0.29102 l 0,-2.64258 a 0.29102404,0.29102404 0 0 1 0.29102,-0.29101 l 3.18164,0 0,-0.24805 -3.18164,0 a 0.29102404,0.29102404 0 0 1 -0.29102,-0.29101 l 0,-2.15821 a 0.29102404,0.29102404 0 0 1 0.29102,-0.29101 l 3.33203,0 0,-0.24805 -4.02734,0 z m 5.55664,0 2.5625,6.70898 0.71484,0 2.5586,-6.70898 -0.40235,0 -2.24414,5.95117 a 0.29102404,0.29102404 0 0 1 -0.54297,-0.002 l -2.24023,-5.94922 -0.40625,0 z m 8.75195,0 -2.56055,6.70898 0.41211,0 0.59571,-1.67773 a 0.29102404,0.29102404 0 0 1 0.27343,-0.19336 l 3.28711,0 a 0.29102404,0.29102404 0 0 1 0.27344,0.19336 l 0.5957,1.67773 0.39844,0 -2.55859,-6.70898 -0.7168,0 z m 24.58203,0 -2.89844,4.41602 0,0.57421 3,0 a 0.29102404,0.29102404 0 0 1 0.29102,0.29102 l 0,1.42773 0.39844,0 0,-1.42773 a 0.29102404,0.29102404 0 0 1 0.29101,-0.29102 l 0.75,0 0,-0.23828 -0.75,0 a 0.29102404,0.29102404 0 0 1 -0.29101,-0.29101 l 0,-4.46094 -0.79102,0 z m 0.10156,0.27734 a 0.29102404,0.29102404 0 0 1 0.29102,0.29102 l 0,3.89258 a 0.29102404,0.29102404 0 0 1 -0.29102,0.29101 l -2.49023,0 a 0.29102404,0.29102404 0 0 1 -0.24609,-0.44726 l 2.49023,-3.89258 a 0.29102404,0.29102404 0 0 1 0.24609,-0.13477 z m -64.83984,0.11329 a 0.29102404,0.29102404 0 0 1 0.2793,0.18945 l 1.3418,3.62695 a 0.29102404,0.29102404 0 0 1 -0.27344,0.39258 l -2.67969,0 a 0.29102404,0.29102404 0 0 1 -0.27344,-0.39258 l 1.33789,-3.62695 a 0.29102404,0.29102404 0 0 1 0.26758,-0.18945 z m 10.01953,0 a 0.29102404,0.29102404 0 0 1 0.2793,0.18945 l 1.3418,3.62695 a 0.29102404,0.29102404 0 0 1 -0.27344,0.39258 l -2.67969,0 a 0.29102404,0.29102404 0 0 1 -0.27344,-0.39258 l 1.33789,-3.62695 a 0.29102404,0.29102404 0 0 1 0.26758,-0.18945 z m 30.48828,0 a 0.29102404,0.29102404 0 0 1 0.2793,0.18945 l 1.3418,3.62695 a 0.29102404,0.29102404 0 0 1 -0.27344,0.39258 l -2.67969,0 a 0.29102404,0.29102404 0 0 1 -0.27344,-0.39258 l 1.3379,-3.62695 a 0.29102404,0.29102404 0 0 1 0.26757,-0.18945 z m 17.48633,2.27929 c 0.50847,0 0.95952,0.193 1.26953,0.55664 0.3147,0.36583 0.46094,0.85835 0.46094,1.4336 0,0.57228 -0.14717,1.06687 -0.46094,1.43554 -0.31041,0.36409 -0.76191,0.55469 -1.26953,0.55469 -0.5086,0 -0.9616,-0.18992 -1.27539,-0.55469 a 0.29102404,0.29102404 0 0 1 -0.002,-0.002 c -0.30977,-0.36859 -0.45508,-0.86156 -0.45508,-1.43359 0,-0.57501 0.14438,-1.06588 0.45508,-1.43164 a 0.29102404,0.29102404 0 0 1 0.002,-0.002 c 0.31338,-0.36431 0.76593,-0.55664 1.27539,-0.55664 z m -72.50976,9.69922 c -0.84911,0 -1.47753,0.29561 -1.97461,0.91992 a 0.29102404,0.29102404 0 0 1 -0.002,0 c -0.49705,0.62132 -0.75586,1.46595 -0.75586,2.57227 0,1.1909 0.2223,2.06921 0.61915,2.64648 0.39713,0.57396 0.92441,0.8418 1.69335,0.8418 0.67628,0 1.17435,-0.19512 1.56055,-0.58984 0.38645,-0.39498 0.58008,-0.90828 0.58008,-1.59961 0,-0.71066 -0.18996,-1.22667 -0.55859,-1.60938 a 0.29102404,0.29102404 0 0 1 -0.002,0 c -0.36577,-0.38547 -0.84838,-0.58008 -1.52148,-0.58008 -0.30516,0 -0.57272,0.0665 -0.82031,0.19727 a 0.29102404,0.29102404 0 0 1 -0.004,0 c -0.24701,0.12766 -0.44814,0.30829 -0.61523,0.55469 a 0.29102404,0.29102404 0 0 1 -0.53126,-0.17969 c 0.0507,-0.92319 0.25045,-1.64512 0.64649,-2.1543 a 0.29102404,0.29102404 0 0 1 0.002,-0.002 c 0.40007,-0.50955 1.00643,-0.76953 1.72266,-0.76953 0.27022,0 0.54228,0.0326 0.81445,0.0996 0.13332,0.0325 0.26175,0.0941 0.39258,0.14062 l 0,-0.26758 c -0.18927,-0.0602 -0.3791,-0.12055 -0.55469,-0.15429 -0.23247,-0.0453 -0.4624,-0.0664 -0.6914,-0.0664 z m 37.66015,0 c -0.75238,0 -1.30387,0.17344 -1.69531,0.49219 -0.38789,0.31867 -0.57227,0.72136 -0.57227,1.29687 0,0.49901 0.13763,0.83834 0.4043,1.0918 0.26683,0.25362 0.74572,0.47491 1.44922,0.61523 l 0.60156,0.11719 a 0.29102404,0.29102404 0 0 1 0.002,0 c 0.52981,0.10665 0.9368,0.26448 1.21875,0.52539 0.28331,0.2595 0.42578,0.6357 0.42578,1.05274 0,0.48251 -0.20493,0.91221 -0.58008,1.18359 -0.37444,0.27088 -0.87137,0.38672 -1.47266,0.38672 -0.40035,0 -0.80579,-0.0603 -1.21484,-0.18164 -0.26475,-0.0785 -0.53579,-0.21924 -0.80469,-0.3457 l 0,0.35546 c 0.33325,0.11355 0.66209,0.21666 0.97266,0.2793 0.37447,0.0749 0.72379,0.11133 1.04687,0.11133 0.87606,0 1.5023,-0.17733 1.90235,-0.48633 0.40345,-0.3095 0.59961,-0.73388 0.59961,-1.375 0,-0.53489 -0.14764,-0.91717 -0.44141,-1.21094 a 0.29102404,0.29102404 0 0 1 -0.002,-0.002 c -0.28979,-0.29519 -0.77496,-0.52704 -1.47461,-0.66016 a 0.29102404,0.29102404 0 0 1 -0.004,0 l -0.5957,-0.12304 0.006,0 c -0.56157,-0.10487 -0.96191,-0.22835 -1.23633,-0.45703 a 0.29102404,0.29102404 0 0 1 -0.004,-0.002 c -0.26291,-0.22725 -0.38867,-0.57364 -0.38867,-0.95312 0,-0.45679 0.1959,-0.867 0.55469,-1.125 a 0.29102404,0.29102404 0 0 1 0.002,0 c 0.36167,-0.2572 0.83934,-0.36719 1.41406,-0.36719 0.33621,0 0.68115,0.0469 1.03516,0.14063 0.22095,0.0585 0.4606,0.16889 0.69531,0.26367 l 0,-0.31836 c -0.28789,-0.0877 -0.57501,-0.16892 -0.84961,-0.2168 -0.33872,-0.0591 -0.66932,-0.0879 -0.99414,-0.0879 z m -44.8789,0.13086 -1.48047,0.29883 0,0.30469 1.40625,-0.28125 a 0.29102404,0.29102404 0 0 1 0.34765,0.28515 l 0,5.5625 a 0.29102404,0.29102404 0 0 1 -0.29101,0.29102 l -1.32031,0 0,0.24804 3.61718,0 0,-0.24804 -1.32031,0 a 0.29102404,0.29102404 0 0 1 -0.29101,-0.29102 l 0,-6.16992 -0.66797,0 z m 13.54297,0 -2.89844,4.41602 0,0.57421 3,0 a 0.29102404,0.29102404 0 0 1 0.29101,0.29102 l 0,1.42773 0.39844,0 0,-1.42773 a 0.29102404,0.29102404 0 0 1 0.29102,-0.29102 l 0.75,0 0,-0.23828 -0.75,0 a 0.29102404,0.29102404 0 0 1 -0.29102,-0.29101 l 0,-4.46094 -0.79101,0 z m 4.05859,0 0,2.9668 c 0.14884,-0.0515 0.29847,-0.1193 0.44531,-0.15235 a 0.29102404,0.29102404 0 0 1 0.002,0 c 0.28374,-0.0631 0.5683,-0.0957 0.85352,-0.0957 0.61451,0 1.14328,0.16821 1.5332,0.51953 0.38976,0.35117 0.58985,0.85088 0.58985,1.42188 0,0.57097 -0.19962,1.07222 -0.58985,1.42382 -0.39039,0.35174 -0.91936,0.51758 -1.5332,0.51758 -0.37007,0 -0.7235,-0.0407 -1.06055,-0.125 -0.18843,-0.0471 -0.36514,-0.14059 -0.54687,-0.21484 l 0,0.33789 c 0.2514,0.07 0.50058,0.1369 0.73633,0.17578 0.30442,0.0497 0.60115,0.0742 0.89062,0.0742 0.84163,0 1.45063,-0.19969 1.87305,-0.57422 0.42348,-0.37831 0.63476,-0.89111 0.63476,-1.61523 0,-0.7012 -0.20596,-1.20811 -0.62109,-1.59766 -0.41498,-0.38939 -0.97395,-0.5918 -1.73438,-0.5918 -0.12562,0 -0.2506,0.0122 -0.37695,0.0352 a 0.29102404,0.29102404 0 0 1 -0.008,0 c -0.12628,0.0201 -0.25255,0.052 -0.38086,0.0957 a 0.29102404,0.29102404 0 0 1 -0.38477,-0.27539 l 0,-1.78711 a 0.29102404,0.29102404 0 0 1 0.29102,-0.29101 l 2.67773,0 0,-0.24805 -3.29101,0 z m 6.36719,0 0,2.9668 c 0.14883,-0.0515 0.29847,-0.1193 0.44531,-0.15235 a 0.29102404,0.29102404 0 0 1 0.002,0 c 0.28373,-0.0631 0.56829,-0.0957 0.85352,-0.0957 0.6145,0 1.14327,0.16821 1.5332,0.51953 0.38977,0.35117 0.58984,0.85089 0.58984,1.42188 0,0.57097 -0.1996,1.07222 -0.58984,1.42382 -0.3904,0.35174 -0.91937,0.51758 -1.5332,0.51758 -0.37007,0 -0.7235,-0.0407 -1.06055,-0.125 -0.18843,-0.0471 -0.36515,-0.14059 -0.54687,-0.21484 l 0,0.33789 c 0.2514,0.07 0.50058,0.1369 0.73632,0.17578 0.30443,0.0497 0.60116,0.0742 0.89063,0.0742 0.84163,0 1.45063,-0.19969 1.87305,-0.57422 0.42348,-0.37831 0.63476,-0.89111 0.63476,-1.61523 0,-0.7012 -0.20596,-1.20811 -0.62109,-1.59766 -0.41498,-0.38939 -0.97397,-0.5918 -1.73438,-0.5918 -0.12562,0 -0.25058,0.0122 -0.37695,0.0352 a 0.29102404,0.29102404 0 0 1 -0.008,0 c -0.12627,0.0201 -0.25257,0.052 -0.38086,0.0957 a 0.29102404,0.29102404 0 0 1 -0.38477,-0.27539 l 0,-1.78711 a 0.29102404,0.29102404 0 0 1 0.29102,-0.29101 l 2.67773,0 0,-0.24805 -3.29101,0 z m 9.45312,0 0,6.70898 0.4043,0 0,-3.2207 a 0.29102404,0.29102404 0 0 1 0.49609,-0.20508 l 3.41797,3.42578 0.47656,0 -3.38281,-3.39648 a 0.29102404,0.29102404 0 0 1 0.008,-0.41797 l 3.08008,-2.89453 -0.41797,0 -3.1875,3.00195 a 0.29102404,0.29102404 0 0 1 -0.49023,-0.21093 l 0,-2.79102 -0.4043,0 z m 6.5625,0 0,6.70898 0.4043,0 0,-6.70898 -0.4043,0 z m 8.28711,0 0,0.24805 2.29688,0 a 0.29102404,0.29102404 0 0 1 0.29101,0.29101 l 0,6.16992 0.4082,0 0,-6.16992 a 0.29102404,0.29102404 0 0 1 0.29102,-0.29101 l 2.29688,0 0,-0.24805 -5.58399,0 z m 8.13086,0 -2.56055,6.70898 0.41211,0 0.59571,-1.67773 a 0.29102404,0.29102404 0 0 1 0.27343,-0.19336 l 3.28711,0 a 0.29102404,0.29102404 0 0 1 0.27344,0.19336 l 0.5957,1.67773 0.39844,0 -2.55859,-6.70898 -0.7168,0 z m -42.75781,0.27734 a 0.29102404,0.29102404 0 0 1 0.29101,0.29102 l 0,3.89258 a 0.29102404,0.29102404 0 0 1 -0.29101,0.29101 l -2.49024,0 a 0.29102404,0.29102404 0 0 1 -0.24609,-0.44726 l 2.49023,-3.89258 a 0.29102404,0.29102404 0 0 1 0.2461,-0.13477 z m 43.10937,0.11329 a 0.29102404,0.29102404 0 0 1 0.2793,0.18945 l 1.3418,3.62695 a 0.29102404,0.29102404 0 0 1 -0.27344,0.39258 l -2.67969,0 a 0.29102404,0.29102404 0 0 1 -0.27344,-0.39258 l 1.33789,-3.62695 a 0.29102404,0.29102404 0 0 1 0.26758,-0.18945 z m -49.95508,2.27929 c 0.50847,0 0.95952,0.193 1.26954,0.55664 0.31469,0.36583 0.46093,0.85835 0.46093,1.4336 0,0.57228 -0.14717,1.06687 -0.46093,1.43554 -0.31042,0.36409 -0.76192,0.55469 -1.26954,0.55469 -0.5086,0 -0.9616,-0.18992 -1.27539,-0.55469 a 0.29102404,0.29102404 0 0 1 -0.002,-0.002 c -0.30977,-0.36859 -0.45508,-0.86156 -0.45508,-1.43359 0,-0.57502 0.14438,-1.06589 0.45508,-1.43164 a 0.29102404,0.29102404 0 0 1 0.002,-0.002 c 0.31339,-0.36431 0.76594,-0.55664 1.27539,-0.55664 z" />
    </g>
    <rect
       style="fill:none;fill-opacity:1;stroke:#000000;stroke-width:0.1;stroke-miterlimit:4;stroke-dasharray:none;stroke-opacity:1"
       id="rect4210"
       width="166.53543"
       height="109.84252"
       x="80.652054"
       y="234.98865" />
  </g>
</svg>
